<svg xmlns="http://www.w3.org/2000/svg" version="1.1" xmlns:xlink="http://www.w3.org/1999/xlink" width="512" height="512" x="0" y="0" viewBox="0 0 511.93 511.93" style="enable-background:new 0 0 512 512" xml:space="preserve" class=""><g><g fill="#A3A3CC"><path d="m161.575 464.907-23.34 23.34c-15.79 15.79-36.53 23.68-57.27 23.68s-41.49-7.89-57.28-23.68l5.78-15.28 15.44-5.94c19.88 19.89 52.23 19.89 72.12 0l23.33-23.33c19.89-19.88 19.89-52.24 0-72.12l7.683-14.314 13.537-6.896c31.58 31.58 31.58 82.96 0 114.54zM324.905 301.577l-23.33 23.33c-15.79 15.79-36.54 23.69-57.28 23.69s-41.48-7.9-57.27-23.69l2.94-16.44 18.27-4.77c19.89 19.88 52.24 19.88 72.12 0l23.34-23.34c19.88-19.88 19.88-52.23 0-72.12l3.77-17.77 17.44-3.44c31.58 31.58 31.58 82.97 0 114.55zM488.245 138.237l-23.34 23.34c-15.79 15.79-36.53 23.68-57.27 23.68s-41.48-7.89-57.27-23.68v-.01l5.98-16.1 15.23-5.11c19.88 19.89 52.24 19.89 72.12 0l23.33-23.33c19.89-19.89 19.89-52.24 0-72.12l5.94-13.44 15.28-7.78c31.58 31.58 31.58 82.97 0 114.55z" fill="#A3A3CC" opacity="1" data-original="#a3a3cc" class=""></path></g><path fill="#C1C1E3" d="M161.565 350.357c-31.58-31.58-82.96-31.58-114.54 0l-23.34 23.34c-31.58 31.58-31.58 82.97 0 114.55l21.22-21.22c-19.89-19.88-19.89-52.23 0-72.12l23.33-23.33c9.94-9.94 23-14.91 36.06-14.91s26.12 4.97 36.06 14.91l21.22-21.21zM210.355 187.027l-23.33 23.33c-31.58 31.58-31.58 82.97 0 114.55l21.21-21.21c-19.88-19.89-19.88-52.24 0-72.12l23.34-23.34c9.94-9.94 23-14.91 36.06-14.91s26.12 4.97 36.06 14.91l21.21-21.21c-31.58-31.58-82.97-31.58-114.55 0zM373.695 23.687l-23.34 23.34c-15.29 15.3-23.72 35.64-23.72 57.27 0 21.64 8.43 41.97 23.73 57.27l21.21-21.21c-19.89-19.88-19.89-52.24 0-72.12l23.33-23.33c9.94-9.94 23-14.92 36.06-14.92s26.12 4.98 36.06 14.92l21.22-21.22c-31.58-31.58-82.97-31.58-114.55 0z" opacity="1" data-original="#c1c1e3" class=""></path><path fill="#C1C1E3" d="m231.575 301.577-93.34 93.33a14.947 14.947 0 0 1-10.6 4.39c-3.84 0-7.68-1.46-10.61-4.39l51.44-62.44 63.11-52.11c5.85 5.86 5.85 15.36 0 21.22zM394.905 138.237l-93.33 93.34c-2.93 2.93-6.77 4.39-10.61 4.39s-7.68-1.46-10.61-4.39l55.081-65.61 59.469-48.94c5.86 5.86 5.86 15.35 0 21.21z" opacity="1" data-original="#c1c1e3" class=""></path><path fill="#DEDEF4" d="m231.575 280.357-114.55 114.55c-5.86-5.86-5.86-15.35 0-21.21l93.33-93.34c5.86-5.85 15.36-5.85 21.22 0zM394.905 117.027l-114.55 114.55c-5.85-5.86-5.85-15.36 0-21.22l93.34-93.33c5.86-5.86 15.35-5.86 21.21 0z" opacity="1" data-original="#dedef4" class=""></path></g></svg>