<svg xmlns="http://www.w3.org/2000/svg" xmlns:xlink="http://www.w3.org/1999/xlink" version="1.1" x="0" y="0" style="enable-background:new 0 0 512 512" xml:space="preserve" viewBox="0 16.52 512 478.96"><g><path d="M132.129 388.127c-20.549 15.412-44.293 21.236-59.305 23.437-4.475.656-5.424 6.758-1.356 8.736 50.434 24.528 104.541 21.589 137.336 16.172 16.085-2.657 30.681 9.674 30.681 25.978v-74.323H132.129z" style="" fill="#91C84B" data-original="#91c84b"/><path d="M379.871 388.127c20.549 15.412 44.293 21.236 59.305 23.437 4.475.656 5.424 6.758 1.356 8.736-50.434 24.528-104.541 21.589-137.336 16.172-16.085-2.657-30.681 9.674-30.681 25.978v-74.323h107.356z" style="" fill="#A0D755" data-original="#a0d755"/><circle cx="346.84" cy="239.478" r="165.16" style="" fill="#E4EAF8" data-original="#e4eaf8"/><path d="M346.839 74.321c22.245 0 43.431 4.462 62.8 12.435 25.26 30.94 40.425 70.444 40.425 113.501 0 99.198-80.415 179.613-179.613 179.613-3.662 0-7.29-.144-10.898-.36-46.705-29.177-77.877-80.9-77.877-140.027.001-91.217 73.946-165.162 165.163-165.162z" style="" fill="#D5DCED" data-original="#d5dced"/><circle cx="165.16" cy="239.478" r="165.16" style="" fill="#D5DCED" data-original="#d5dced"/><path d="M165.161 74.321c-22.245 0-43.431 4.462-62.8 12.435-25.26 30.94-40.425 70.444-40.425 113.501 0 99.198 80.415 179.613 179.613 179.613 3.662 0 7.29-.144 10.898-.36 46.705-29.177 77.876-80.9 77.876-140.027 0-91.217-73.945-165.162-165.162-165.162z" style="" fill="#C7CFE2" data-original="#c7cfe2"/><circle cx="256" cy="181.678" r="165.16" style="" fill="#E4EAF8" data-original="#e4eaf8"/><path d="M338.581 297.288c-91.216 0-165.161-73.946-165.161-165.161 0-42.585 16.255-81.278 42.722-110.568-71.924 17.859-125.303 82.67-125.303 160.116 0 91.216 73.945 165.161 165.161 165.161 48.631 0 92.215-21.146 122.44-54.594-12.789 3.176-26.09 5.046-39.859 5.046z" style="" fill="#D5DCED" data-original="#d5dced"/><path d="M445.663 245.433c.32-5.141-5.781-8.054-9.608-4.605-15.287 13.777-38.071 28.073-97.427 39.944-44.28 8.856-64.795 36.694-74.316 60.621-1.329 3.34-4.669 5.444-8.264 5.444-3.595 0-6.935-2.103-8.264-5.444-9.522-23.927-30.037-51.765-74.316-60.621-59.356-11.871-82.139-26.167-97.426-39.944-3.827-3.449-9.928-.536-9.608 4.605 2.466 39.606 20.574 149.404 144.878 165.664 16.242 2.125 28.221 16.287 28.221 32.667v43.459a8.258 8.258 0 0 0 8.258 8.258h16.516a8.258 8.258 0 0 0 8.258-8.258l.001-43.459c0-16.38 11.979-30.543 28.221-32.667 124.302-16.26 142.41-126.058 144.876-165.664z" style="" fill="#B4E66E" data-original="#b4e66e"/><path d="M338.581 330.321c57.883-28.942 96.74-64.219 105.478-89.176-2.01-2.067-5.483-2.588-8.003-.317-15.287 13.777-38.072 28.073-97.427 39.945-44.28 8.856-64.794 36.694-74.317 60.621-1.329 3.34-4.669 5.444-8.264 5.444s-6.935-2.103-8.264-5.444c-9.522-23.927-30.037-51.765-74.317-60.621-59.355-11.871-82.139-26.167-97.426-39.944-3.827-3.449-9.928-.536-9.608 4.605 2.466 39.606 20.575 149.404 144.878 165.664 16.241 2.124 28.221 16.287 28.221 32.667v43.459a8.258 8.258 0 0 0 8.258 8.258H256v-66.065c0-49.548 26.329-70.97 82.581-99.096z" style="" fill="#A0D755" data-original="#a0d755"/><path d="M222.968 379.869c-23.799-15.866-116.153-8.954-152.671-140.156-2.259.794-4.039 2.895-3.863 5.72 2.466 39.606 20.575 149.404 144.878 165.664 16.241 2.124 28.221 16.287 28.221 32.667-.001-22.605-1.201-53.652-16.565-63.895z" style="" fill="#91C84B" data-original="#91c84b"/></g></svg>