<svg xmlns="http://www.w3.org/2000/svg" version="1.1" xmlns:xlink="http://www.w3.org/1999/xlink" width="512" height="512" x="0" y="0" viewBox="0 0 512 512" style="enable-background:new 0 0 512 512" xml:space="preserve"><g><path fill="#AF66DA" d="M482.009 31.705H26.992v453.303h437.345c3.279-.679 14.248 2.608 16.825.679a22.443 22.443 0 0 0 3.847-3.665c2.283-2.76 1.701-9.805 2.457-13.454 29.757-144.197 24.301-292.666-5.457-436.863z" opacity="1" data-original="#af66da"></path><path fill="#9857BD" d="M489.682 39.705a22.343 22.343 0 0 0-4.674-9.727c-.508-.614-3.108.858-3.678.302-.439-.428 1.164-2.898.691-3.289a22.377 22.377 0 0 0-9.727-4.674 1109.726 1109.726 0 0 0-25.646-4.971 23.034 23.034 0 0 1 12.891 16.228c30.601 148.283 30.601 296.567 0 444.85a23.042 23.042 0 0 1-12.887 16.227 1108.427 1108.427 0 0 0 25.643-4.97 22.363 22.363 0 0 0 9.727-4.674c.544-.45-2.024-2.983-1.525-3.482.498-.498 4.063 1.039 4.512.496a22.355 22.355 0 0 0 4.673-9.727c29.757-144.196 29.757-288.392 0-432.589z" opacity="1" data-original="#9857bd"></path><path fill="#EBD5F6" d="M22.318 472.295a22.297 22.297 0 0 0 4.674 9.726L221.333 256 26.992 31.705c-2.278 2.75-3.918 4.341-4.674 8-29.757 144.197-29.757 288.393 0 432.59z" opacity="1" data-original="#ebd5f6"></path><path fill="#CB97E7" d="M482.022 485.008a22.44 22.44 0 0 1-9.727 4.674c-144.196 29.758-288.393 29.758-432.589 0-3.648-.755-9.951-2.384-12.714-4.674L256 405.72z" opacity="1" data-original="#cb97e7"></path><path fill="#CB97E7" d="M472.295 489.682a22.429 22.429 0 0 0 9.727-4.674l-22.238-7.801c-.083.406-.16.812-.244 1.218a23.042 23.042 0 0 1-12.887 16.227 1109.374 1109.374 0 0 0 25.642-4.97z" opacity="1" data-original="#cb97e7"></path><path fill="#E5CAF3" d="M482.009 26.993 256 106.28 29.991 26.993a22.315 22.315 0 0 1 9.715-4.674c144.196-29.758 288.393-29.758 432.589 0a22.316 22.316 0 0 1 9.714 4.674z" opacity="1" data-original="#e5caf3"></path><path fill="#D9B1EE" d="M472.295 22.318a1109.726 1109.726 0 0 0-25.646-4.971 23.036 23.036 0 0 1 12.891 16.228c.084.405.16.812.243 1.217l22.227-7.799a22.338 22.338 0 0 0-9.715-4.675z" opacity="1" data-original="#d9b1ee"></path><path fill="#CB97E7" d="M485.008 29.978 405.72 256l-123.305-46.282L256 106.28l226.022-79.288a21.069 21.069 0 0 1 2.986 2.986z" opacity="1" data-original="#cb97e7"></path><path fill="#AF66DA" d="m482.022 26.992-22.239 7.8a1134.337 1134.337 0 0 1 8.116 43.959l17.109-48.772a21.023 21.023 0 0 0-2.986-2.987z" opacity="1" data-original="#af66da"></path><path fill="#D9B1EE" d="m256 106.28-33.195 130.021L106.28 256 26.992 31.705c.897-1.098 1.889-3.816 2.987-4.713z" opacity="1" data-original="#d9b1ee"></path><path fill="#BD80E1" d="M485.009 482.022a20.971 20.971 0 0 1-2.987 2.986L256 405.72l34.107-116.538L405.72 256z" opacity="1" data-original="#bd80e1"></path><path fill="#AF66DA" d="M467.899 433.25a1132.693 1132.693 0 0 1-8.116 43.957l22.238 7.801a20.971 20.971 0 0 0 2.987-2.986z" opacity="1" data-original="#af66da"></path><path fill="#D9B1EE" d="M256 405.72 26.992 485.008c-1.098-.897.898-1.889.001-2.987L106.28 256l115.564 14.989z" opacity="1" data-original="#d9b1ee"></path><path fill="#EBD5F6" d="m106.248 256 149.697-149.697L405.642 256 255.945 405.697z" opacity="1" data-original="#ebd5f6"></path></g></svg>