<svg xmlns="http://www.w3.org/2000/svg" version="1.1" xmlns:xlink="http://www.w3.org/1999/xlink" width="512" height="512" x="0" y="0" viewBox="0 0 512 512" style="enable-background:new 0 0 512 512" xml:space="preserve"><g><path d="M311.952 482.422a51.51 51.51 0 0 1-9.594-29.939V335.066h-61.811l30.905 169.98h28.857c11.638 0 18.407-13.154 11.643-22.624z" style="" fill="#6F4F3C" data-original="#6f4f3c"></path><path d="M209.642 335.066v117.417a51.508 51.508 0 0 1-9.594 29.939c-6.764 9.47.005 22.624 11.643 22.624h28.856l30.905-169.98h-61.81z" style="" fill="#B08D78" data-original="#b08d78"></path><path d="M281.047 482.422a51.51 51.51 0 0 1-9.594-29.939V335.066h-30.905v117.417a51.508 51.508 0 0 1-9.594 29.939c-6.356 8.9-.76 21.05 9.594 22.482v.142h30.905v-.142c10.355-1.433 15.951-13.583 9.594-22.482z" style="" fill="#936C56" data-original="#936c56"></path><path d="M294.632 460.21a7.726 7.726 0 0 1-7.726-7.726c0-22.879 8.909-44.389 25.088-60.566l30.509-30.509a7.726 7.726 0 0 1 10.926 10.926l-30.509 30.509c-13.259 13.259-20.561 30.889-20.561 49.64a7.728 7.728 0 0 1-7.727 7.726z" style="" fill="#6F4F3C" data-original="#6f4f3c"></path><circle cx="225.187" cy="44.823" r="37.869" style="" fill="#A6B730" data-original="#a6b730"></circle><circle cx="87.411" cy="131.832" r="49.953" style="" fill="#A6B730" data-original="#a6b730"></circle><circle cx="462.047" cy="206.757" r="49.953" style="" fill="#869325" data-original="#869325"></circle><circle cx="293.725" cy="78.294" r="71.34" style="" fill="#C8D45B" data-original="#c8d45b"></circle><circle cx="390.202" cy="137.406" r="81.755" style="" fill="#A6B730" data-original="#a6b730"></circle><circle cx="389.614" cy="282.929" r="97.404" style="" fill="#869325" data-original="#869325"></circle><circle cx="189.873" cy="148.418" r="109.003" style="" fill="#C8D45B" data-original="#c8d45b"></circle><circle cx="109.271" cy="241.104" r="109.271" style="" fill="#A6B730" data-original="#a6b730"></circle><circle cx="292.798" cy="212.31" r="81.755" style="" fill="#A6B730" data-original="#a6b730"></circle><circle cx="213.35" cy="305.593" r="101.988" style="" fill="#869325" data-original="#869325"></circle></g></svg>