<svg xmlns="http://www.w3.org/2000/svg" version="1.1" xmlns:xlink="http://www.w3.org/1999/xlink" width="512" height="512" x="0" y="0" viewBox="0 0 64 64" style="enable-background:new 0 0 512 512" xml:space="preserve"><g><path fill="#E53935" d="M28.11 16.201 33 19.675l-2.315 3.26-4.89-3.474a2 2 0 0 1-.472-2.788 2 2 0 0 1 2.788-.472z" opacity="1" data-original="#e53935"></path><path fill="#FF7373" d="M51 44V31a2 2 0 0 1 .8-1.6l5.2-3.9a5 5 0 0 0 2-4V10a2 2 0 0 0-2-2 2 2 0 0 0-2 2v11.446a1 1 0 0 1-.47.848l-5.265 3.291a6 6 0 0 0-2.729 4.045l-2.3 13.037-1.23-6.967a13 13 0 0 0-5.913-8.765A6.581 6.581 0 0 1 34 21.352V15a2 2 0 0 0-2-2 2 2 0 0 0-2 2v7a10 10 0 0 0 4 8l1.2.9a7 7 0 0 1 2.8 5.6V41h-4l-3.953-6.325a1.919 1.919 0 0 0-2.69-.58 1.919 1.919 0 0 0-.682 2.39 2.035 2.035 0 0 1-.929 2.655l-.672.342a1.917 1.917 0 0 0-.839 2.579l.075.147a1.917 1.917 0 0 0 2.579.838l2.248-1.146.531 1.167A5 5 0 0 0 34.22 46h3.447L36 61h19z" opacity="1" data-original="#ff7373"></path><path fill="#EF5350" d="m49 44 2.982 4.175L51 44v-.25z" opacity="1" data-original="#ef5350"></path><path fill="#EF5350" d="m29.156 38.022 1.4 2.459A5 5 0 0 0 34.9 43H38v-6.5a7 7 0 0 0-2.8-5.6L34 30a10 10 0 0 1-4-8v-7a2.015 2.015 0 0 1 2-2 1.987 1.987 0 0 1 1.42.6A5.661 5.661 0 0 0 32 17.35v3.75a7 7 0 0 0 2.051 4.951L36.7 28.7a16.083 16.083 0 0 1 4.68 10.36l.15 2.37A8.071 8.071 0 0 0 49.59 49h2.59L55 61H36l1.67-15h-3.45a5 5 0 0 1-4.553-2.936L29.14 41.9l-2.25 1.15a1.921 1.921 0 0 1-2.58-.84l-.08-.15a1.881 1.881 0 0 1 .819-2.569l.7-.351a2.022 2.022 0 0 0 .92-2.66 1.969 1.969 0 0 1-.17-.79 1.928 1.928 0 0 1 2.308-1.875 4.989 4.989 0 0 0 .349 4.207z" opacity="1" data-original="#ef5350"></path><path fill="#EF5350" d="M57 12v7.5a7 7 0 0 1-2.8 5.6l-3 2.253a7 7 0 0 0-2.691 4.347l-.822 4.52a11.918 11.918 0 0 1-3.452 6.446l2.3-13.037a6 6 0 0 1 2.729-4.045l5.265-3.291a1 1 0 0 0 .47-.848V10a2 2 0 0 1 2-2 1.99 1.99 0 0 1 1.273.458A5.563 5.563 0 0 0 57 12z" opacity="1" data-original="#ef5350"></path><path fill="#FF7373" d="m36 27 3.414-3.414A2 2 0 0 0 40 22.172V19a2 2 0 0 1 2-2 2 2 0 0 1 2 2v3.515a6 6 0 0 1-1.757 4.242L39 30zM49 39h3.764a2 2 0 0 0 1.789-1.106l2.507-5.015a1.856 1.856 0 0 1 2.688-.714 1.854 1.854 0 0 1 .693 2.232L58.1 40.261a5 5 0 0 1-4.022 3.1L49 44zM55.109 16.406l-2.437-1.625A6 6 0 0 1 50 9.789V5.107a2.075 2.075 0 0 0-1.664-2.08A2 2 0 0 0 46 5v5.181L42.492 8.03a2 2 0 0 0-2.676.546l-.083.116a2 2 0 0 0 .462 2.782L56 22.842V18.07a2 2 0 0 0-.891-1.664z" opacity="1" data-original="#ff7373"></path><path fill="#EF5350" d="M58.243 31.916a1.849 1.849 0 0 1 1.5.249 1.854 1.854 0 0 1 .693 2.232L58.1 40.261a5 5 0 0 1-4.022 3.1L49 44l4.939-2.117a5.6 5.6 0 0 0 2.944-2.944l1.244-2.9a5.608 5.608 0 0 0 .116-4.122zM41.2 9.474a1.984 1.984 0 0 1-.814-1.431 1.985 1.985 0 0 0-.565.533l-.083.116a2 2 0 0 0 .462 2.782L56 22.842v-2.719z" opacity="1" data-original="#ef5350"></path><circle cx="10" cy="15" r="2" fill="#ADE8F4" opacity="1" data-original="#ade8f4"></circle><circle cx="20" cy="22" r="2" fill="#ADE8F4" opacity="1" data-original="#ade8f4"></circle><circle cx="26" cy="7" r="2" fill="#ADE8F4" opacity="1" data-original="#ade8f4"></circle><path fill="#48CAE4" d="M27 8a1.992 1.992 0 0 1-1.82-2.82 2 2 0 1 0 2.64 2.64A1.99 1.99 0 0 1 27 8zM21 23a1.992 1.992 0 0 1-1.82-2.82 2 2 0 1 0 2.64 2.64A1.99 1.99 0 0 1 21 23zM11 16a1.992 1.992 0 0 1-1.82-2.82 2 2 0 1 0 2.64 2.64A1.99 1.99 0 0 1 11 16z" opacity="1" data-original="#48cae4"></path><path fill="#95D5B2" d="M21.317 40.051a6.08 6.08 0 0 0-5.651.949 28.344 28.344 0 0 0-.365-3.224l.436-.725a8.894 8.894 0 0 1 5.506-4.08 1 1 0 0 0-.485-1.94 10.862 10.862 0 0 0-6.069 4.009 29.331 29.331 0 0 0-.438-1.449A14.716 14.716 0 0 0 13 30.871v-.265a5.725 5.725 0 0 1 2.555-4.774 1 1 0 0 0-1.109-1.664A7.709 7.709 0 0 0 11.3 28.5a14.769 14.769 0 0 0-7.026-4.463 1 1 0 1 0-.55 1.922 12.781 12.781 0 0 1 7.036 5.094 9.622 9.622 0 0 0-6.077 0 1 1 0 1 0 .632 1.9 7.636 7.636 0 0 1 5.249.154l1.594.638c.062.162.139.316.195.482a26.749 26.749 0 0 1 1 4.042l-.223-.169a7.04 7.04 0 0 0-6.446-1.047 1 1 0 1 0 .633 1.9 5.031 5.031 0 0 1 4.613.748l1.47 1.1a.986.986 0 0 0 .259.135 26.647 26.647 0 0 1 .017 3.135A8.864 8.864 0 0 0 8 42a1 1 0 0 0 0 2 6.88 6.88 0 0 1 5.512 2.781l-.289 6.62a1 1 0 0 0 .936 1.06h.063a1 1 0 0 0 1-.937l.444-9.105c.015-.235.019-.469.028-.7 0-.005.011-.006.016-.011l.764-.764a4.09 4.09 0 0 1 4.213-.994 1 1 0 0 0 .633-1.9z" opacity="1" data-original="#95d5b2"></path><path fill="#52B788" d="M26.316 46.051a4.442 4.442 0 0 0-5.2 1.963 7.738 7.738 0 0 0-2.559-2.846 1 1 0 0 0-1.11 1.664A5.724 5.724 0 0 1 20 51.605V56a1 1 0 0 0 2 0v-4.4c0-.193-.021-.382-.035-.572.153-.388.42-1.032.711-1.724a2.441 2.441 0 0 1 3.008-1.36 1 1 0 1 0 .632-1.9z" opacity="1" data-original="#52b788"></path><path fill="#E53935" d="M42 56.088a1 1 0 0 1-1-1V48a1 1 0 0 1 2 0v7.088a1 1 0 0 1-1 1zM47.719 57.042a1 1 0 0 1-.992-.881l-.72-6.043a1 1 0 0 1 1.986-.236l.72 6.042a1 1 0 0 1-.875 1.112 1.17 1.17 0 0 1-.119.006z" opacity="1" data-original="#e53935"></path><g fill="#ADE8F4"><circle cx="20" cy="16" r="1" fill="#ADE8F4" opacity="1" data-original="#ade8f4"></circle><circle cx="10" cy="9" r="1" fill="#ADE8F4" opacity="1" data-original="#ade8f4"></circle><circle cx="8" cy="5" r="1" fill="#ADE8F4" opacity="1" data-original="#ade8f4"></circle><circle cx="18" cy="12" r="1" fill="#ADE8F4" opacity="1" data-original="#ade8f4"></circle><circle cx="31" cy="4" r="1" fill="#ADE8F4" opacity="1" data-original="#ade8f4"></circle></g><circle cx="16.5" cy="55.5" r="3.5" fill="#DA9367" opacity="1" data-original="#da9367"></circle><path fill="#F9DBAF" d="M3 55a6 6 0 1 1 6 6H3z" opacity="1" data-original="#f9dbaf"></path><path fill="#EDB88E" d="M12.5 55A5.5 5.5 0 0 1 7 49.5c0-.052.006-.1.008-.154A6 6 0 0 0 3 55v6h4.966a7.421 7.421 0 0 0 5.713-2.583 6.6 6.6 0 0 0 .47-.631A1.822 1.822 0 0 0 12.527 55z" opacity="1" data-original="#edb88e"></path><path fill="#F9DBAF" d="M46 55c-1 0-1.968.041-2.91.115A13.659 13.659 0 0 0 33 51c-6.9 0-12.5 4.477-12.5 10H61c0-3.314-6.716-6-15-6z" opacity="1" data-original="#f9dbaf"></path><path fill="#EDB88E" d="M61 61H20.5c0-3.95 2.87-7.38 7.04-9A3.98 3.98 0 0 0 31 54a13.188 13.188 0 0 1 7.33 2.22A10.61 10.61 0 0 0 44.21 58h4.1a13.969 13.969 0 0 1 5.19 1 13.969 13.969 0 0 0 5.19 1h2.1a2.528 2.528 0 0 1 .21 1z" opacity="1" data-original="#edb88e"></path><path fill="#FCF2AD" d="M33 61c0-2.761-6.716-5-15-5S3 58.239 3 61z" opacity="1" data-original="#fcf2ad"></path><path fill="#F9DBAF" d="M33 61H3c0-2.19 4.23-4.05 10.12-4.73 2.32 1.28 6.38 2.32 11.05 2.72a38.706 38.706 0 0 0 7.5-.05A2.694 2.694 0 0 1 33 61z" opacity="1" data-original="#f9dbaf"></path></g></svg>