<svg xmlns="http://www.w3.org/2000/svg" version="1.1" xmlns:xlink="http://www.w3.org/1999/xlink" width="512" height="512" x="0" y="0" viewBox="0 0 497 497" style="enable-background:new 0 0 512 512" xml:space="preserve" class=""><g><path fill="#B5C0FF" d="m143.5 129.26-30 114.96V362c0 1.99.4 3.94 1.14 5.74h88.86V129.26z" opacity="1" data-original="#b5c0ff" class=""></path><path fill="#CFDDFF" d="M113.5 214.22v30c0 8.28 6.72 15 15 15s15-6.72 15-15v-30z" opacity="1" data-original="#cfddff" class=""></path><path fill="#E8F3FF" d="M143.5 129.26v84.96c0 8.28-6.72 15-15 15s-15-6.72-15-15V135c0-1.99.4-3.94 1.14-5.74z" opacity="1" data-original="#e8f3ff"></path><path fill="#B5C0FF" d="M382.36 129.26H308.5v238.48h45l30-114.96V135c0-1.99-.4-3.94-1.14-5.74z" opacity="1" data-original="#b5c0ff" class=""></path><path fill="#A1A6FF" d="M383.5 252.78V362c0 1.99-.4 3.94-1.14 5.74H353.5V252.78c0-8.28 6.72-15 15-15s15 6.72 15 15z" opacity="1" data-original="#a1a6ff"></path><path fill="#CFDDFF" d="m237.89 4.39-120 120a15.07 15.07 0 0 0-3.25 4.87l58.86 24.38h105L248.5 0c-3.84 0-7.68 1.46-10.61 4.39z" opacity="1" data-original="#cfddff" class=""></path><path fill="#A1A6FF" d="m379.11 124.39-50.68-50.68-79.93 39.965 75 39.965 58.86-24.38a15.07 15.07 0 0 0-3.25-4.87z" opacity="1" data-original="#a1a6ff"></path><path fill="#CFDDFF" d="m173.5 343.36-58.86 24.38c.75 1.8 1.84 3.46 3.25 4.87l50.68 50.68 79.93-42.43z" opacity="1" data-original="#cfddff" class=""></path><path fill="#E8F3FF" d="M278.5 380.86 248.5 497c-3.84 0-7.68-1.46-10.61-4.39l-69.32-69.32c-11.71-11.72-11.71-30.71 0-42.43 11.72-11.72 30.71-11.72 42.43 0z" opacity="1" data-original="#e8f3ff"></path><path fill="#CFDDFF" d="m353.5 355.79 28.86 11.95a15.07 15.07 0 0 1-3.25 4.87l-120 120A14.953 14.953 0 0 1 248.5 497V343.36h75z" opacity="1" data-original="#cfddff" class=""></path><path fill="#B5C0FF" d="M328.43 73.71c11.71 11.72 11.71 30.71 0 42.43-11.72 11.72-30.71 11.72-42.43 0l-37.5 37.5V0c3.84 0 7.68 1.46 10.61 4.39z" opacity="1" data-original="#b5c0ff" class=""></path><path fill="#CFDDFF" d="m269.71 99.85-21.21 53.79v-75z" opacity="1" data-original="#cfddff" class=""></path><path fill="#E8F3FF" d="M269.71 113.99v82.08H173.5v-42.43l75-75zM248.5 268.36v150l75-75v-75z" opacity="1" data-original="#e8f3ff"></path><path fill="#FFFFFF" d="M293.5 268.36v75l-45 75-37.5-37.5v-112.5z" opacity="1" data-original="#ffffff"></path><path fill="#E8F3FF" d="m211 212.2-37.5 79.33v51.83l37.5 37.5 82.5-82.5v-42.42z" opacity="1" data-original="#e8f3ff"></path><path fill="#CFDDFF" d="M323.5 226.31h-30v72.05l30-30z" opacity="1" data-original="#cfddff" class=""></path><path fill="#E8F3FF" d="m269.71 99.85-5.303 5.303L293.5 255.94l29.63-29.63h.37v-72.67z" opacity="1" data-original="#e8f3ff"></path><path fill="#FFFFFF" d="M264.407 105.153 173.5 196.07v95.46l49.39-49.33c9.45-9.45 25.61-2.75 25.61 10.61v11.91c0 13.34 16.1 20.04 25.57 10.65l19.43-19.43V153.641z" opacity="1" data-original="#ffffff"></path></g></svg>