<svg xmlns="http://www.w3.org/2000/svg" version="1.1" xmlns:xlink="http://www.w3.org/1999/xlink" width="512" height="512" x="0" y="0" viewBox="0 0 511.999 511.999" style="enable-background:new 0 0 512 512" xml:space="preserve" class=""><g><path d="M134.047 194.408H15.118a15.117 15.117 0 0 1-10.763-25.734L124.795 46.56a15.116 15.116 0 0 1 10.764-4.502h59.464a15.116 15.116 0 0 1 13.525 21.872l-60.976 122.114a15.116 15.116 0 0 1-13.525 8.364z" style="" fill="#A0EBFF" data-original="#a0ebff"></path><path d="M496.881 194.408H377.952a15.118 15.118 0 0 1-13.526-8.364L303.45 63.93a15.12 15.12 0 0 1 13.525-21.872h59.464a15.12 15.12 0 0 1 10.764 4.502l120.441 122.114a15.12 15.12 0 0 1 3.184 16.449 15.116 15.116 0 0 1-13.947 9.285z" style="" fill="#73C8F0" data-original="#73c8f0"></path><path d="m117.142 178.897 77.881-136.839h121.953l77.642 136.839H117.142z" style="" fill="#D2F0FF" data-original="#d2f0ff"></path><path d="M361.594 178.897 242.175 448.703a15.115 15.115 0 0 0 5.698 18.866 15.078 15.078 0 0 0 8.119 2.371c4.239 0 8.426-1.779 11.389-5.168L508.262 189.24a15.106 15.106 0 0 0 3.722-10.344h-150.39v.001z" style="" fill="#0073AA" data-original="#0073aa"></path><path d="M150.405 178.897H.014a15.108 15.108 0 0 0 3.722 10.344l240.881 275.532a15.106 15.106 0 0 0 11.389 5.168c2.796 0 5.615-.774 8.119-2.371a15.118 15.118 0 0 0 5.698-18.866L150.405 178.897z" style="" fill="#41B4E6" data-original="#41b4e6"></path><path d="m117.142 178.897 125.034 282.044a15.116 15.116 0 0 0 27.648 0l124.795-282.044H117.142z" style="" fill="#A0EBFF" data-original="#a0ebff"></path><path d="M255.88 178.897h138.738L316.975 42.058H255.88z" style="" fill="#41B4E6" data-original="#41b4e6"></path><path d="M256 469.94a15.116 15.116 0 0 0 13.824-8.999l124.794-282.044H256V469.94z" style="" fill="#73C8F0" data-original="#73c8f0"></path></g></svg>