<svg xmlns="http://www.w3.org/2000/svg" version="1.1" xmlns:xlink="http://www.w3.org/1999/xlink" width="512" height="512" x="0" y="0" viewBox="0 0 512 512" style="enable-background:new 0 0 512 512" xml:space="preserve"><g><path fill="#C1F261" d="M213.578 407 166 359.422V152.578L213.578 105h84.844L346 152.578v206.844L298.422 407z" opacity="1" data-original="#c1f261"></path><path fill="#A0E65C" d="M256 105v302h42.422L346 359.422V152.578L298.422 105z" opacity="1" data-original="#a0e65c"></path><path fill="#C1F261" d="M352.301 512H159.699l-11.849-67.5L196 437h120l48.15 7.5z" opacity="1" data-original="#c1f261"></path><path fill="#A0E65C" d="M256 437v75h96.301l11.85-67.5L316 437z" opacity="1" data-original="#a0e65c"></path><path fill="#C1F261" d="m352.301 0 11.849 67.5L316 75H196l-48.15-7.5L159.699 0z" opacity="1" data-original="#c1f261"></path><path fill="#A0E65C" d="M256 0v75h60l48.151-7.5L352.301 0z" opacity="1" data-original="#a0e65c"></path><path fill="#A0E65C" d="m316 75 15 30-45 30h-60l-45-30 15-30 60-30z" opacity="1" data-original="#a0e65c"></path><path fill="#79CC52" d="m286 135 45-30-15-30-60-30v90zM376 135l30 111.967L376 377l-60 15V120zM196 165v227l-60-15-30-130.033L136 135l60-15z" opacity="1" data-original="#79cc52"></path><g fill="#59B348"><path d="M451 98.699v314.6l-67.5 11.85L376 377V135l7.5-48.15zM136 135v242l-7.5 48.149-67.5-11.85v-314.6l67.5-11.849z" fill="#59B348" opacity="1" data-original="#59b348"></path></g><path fill="#A0E65C" d="m316 437-60 30-60-30-15-30 45-30h60l45 30z" opacity="1" data-original="#a0e65c"></path><path fill="#59B348" d="m376 135-60 30-30-30 30-60h60zM226 135l-30 30-60-30V75h60z" opacity="1" data-original="#59b348"></path><g fill="#79CC52"><path d="m196 75-60 60-75-36.301L159.699 0zM451 98.699 376 135l-60-60 36.301-75z" fill="#79CC52" opacity="1" data-original="#79cc52"></path></g><path fill="#79CC52" d="M256 377v90l60-30 15-30-45-30z" opacity="1" data-original="#79cc52"></path><g fill="#59B348"><path d="m226 377-30 60h-60v-60l60-30zM376 377v60h-60l-30-60 30-30z" fill="#59B348" opacity="1" data-original="#59b348"></path></g><g fill="#79CC52"><path d="m196 437-36.301 75L61 413.299 136 377zM451 413.299 352.301 512 316 437l60-60z" fill="#79CC52" opacity="1" data-original="#79cc52"></path></g></g></svg>