<svg xmlns="http://www.w3.org/2000/svg" version="1.1" xmlns:xlink="http://www.w3.org/1999/xlink" width="512" height="512" x="0" y="0" viewBox="0 0 64 64" style="enable-background:new 0 0 512 512" xml:space="preserve">
	<g>
		<circle cx="9" cy="10" r="4" fill="#c1c1c1" opacity="1" data-original="#c1c1c1">
		</circle>
		<g fill="#d7d7d7">
			<path d="M61.541 63h-17.75a1 1 0 0 1-.932-1.362L46.21 53h12.235a1 1 0 0 1 .933.639l3.096 8A1 1 0 0 1 61.541 63zM40.871 63H23.129a1 1 0 0 1-.933-1.361L25.54 53h12.92l3.343 8.639A1 1 0 0 1 40.871 63zM11.33 53h6.46l3.352 8.638A1 1 0 0 1 20.209 63H2.461a1 1 0 0 1-.932-1.362l3.104-8A1 1 0 0 1 5.565 53z" fill="#d7d7d7" opacity="1" data-original="#d7d7d7">
			</path>
		</g>
		<g fill="#c8c8c8">
			<path d="M11.33 53H7.036L2.85 63h4.336l4.186-10zM13.54 53 9.354 63h2.168l4.186-10zM27.622 53l-4.186 10h4.337l4.186-10zM34.127 53l-4.186 10h2.168l4.186-10zM48.079 53l-4.186 10h4.336l4.186-10zM54.583 53l-4.186 10h2.169l4.186-10z" fill="#c8c8c8" opacity="1" data-original="#c8c8c8">
			</path>
		</g>
		<path fill="#d7d7d7" d="M25.54 53H12.791a1 1 0 0 1-.932-1.362l3.104-8a1 1 0 0 1 .932-.638H28.13l3.343 8.639A1 1 0 0 1 30.541 53zM46.21 53H33.461a1 1 0 0 1-.932-1.362L35.88 43H48.105a1 1 0 0 1 .932.638l3.104 8A1 1 0 0 1 51.209 53z" opacity="1" data-original="#d7d7d7">
		</path>
		<g fill="#c8c8c8">
			<path d="m21.37 43-4.19 10h-4.33l4.19-10zM25.71 43l-4.19 10h-2.17l4.19-10z" fill="#c8c8c8" opacity="1" data-original="#c8c8c8">
			</path>
		</g>
		<g fill="#c1c1c1">
			<path d="m42.37 43-4.19 10h-4.33l4.19-10zM46.71 43l-4.19 10h-2.17l4.19-10z" fill="#c1c1c1" opacity="1" data-original="#c1c1c1">
			</path>
		</g>
		<path fill="#d7d7d7" d="M35.88 43H23.129a1 1 0 0 1-.933-1.361l3.096-8c.15-.385.52-.639.933-.639h11.549a1 1 0 0 1 .933.639l3.096 8A1 1 0 0 1 40.871 43z" opacity="1" data-original="#d7d7d7">
		</path>
		<g fill="#c8c8c8">
			<path d="m32.14 33-4.68 10h-3.32l4.68-10zM35.46 33l-4.68 10h-1.65l4.68-10z" fill="#c8c8c8" opacity="1" data-original="#c8c8c8">
			</path>
		</g>
		<path fill="#b6b6b6" d="M61.541 63H43.793a1 1 0 0 1-.932-1.363L43.11 61h8.39a5.5 5.5 0 0 0 5.5-5.5V53h1.445a1 1 0 0 1 .933.639l3.096 8A1 1 0 0 1 61.541 63zM40.871 63H23.127a1 1 0 0 1-.933-1.359L22.44 61h8.06a5.5 5.5 0 0 0 5.5-5.5V53h2.46l3.343 8.639A1 1 0 0 1 40.871 63zM20.209 63H2.463a1 1 0 0 1-.932-1.363L1.78 61h8.72a5.5 5.5 0 0 0 5.5-5.5V53h1.79l3.352 8.638A1 1 0 0 1 20.209 63z" opacity="1" data-original="#b6b6b6">
		</path>
		<path fill="#d7d7d7" d="M9 15a1 1 0 0 1-1-1v-.75A2.252 2.252 0 0 0 5.75 11H5a1 1 0 0 1 0-2h.75A2.252 2.252 0 0 0 8 6.75V6a1 1 0 0 1 2 0v.75A2.252 2.252 0 0 0 12.25 9H13a1 1 0 0 1 0 2h-.75A2.252 2.252 0 0 0 10 13.25V14a1 1 0 0 1-1 1zm-.514-5c.185.156.358.329.514.514.156-.185.329-.358.514-.514A4.302 4.302 0 0 1 9 9.486a4.302 4.302 0 0 1-.514.514z" opacity="1" data-original="#d7d7d7">
		</path>
		<circle cx="55" cy="12" r="4" fill="#c1c1c1" opacity="1" data-original="#c1c1c1">
		</circle>
		<path fill="#d7d7d7" d="M57.829 15.829a.997.997 0 0 1-.707-.293l-.53-.53c-.851-.851-2.332-.851-3.183 0l-.53.53a.999.999 0 1 1-1.414-1.414l.53-.53c.425-.425.659-.99.659-1.591s-.234-1.166-.659-1.591l-.53-.53a.997.997 0 0 1 0-1.414.999.999 0 0 1 1.414 0l.53.53c.851.851 2.332.851 3.183 0l.53-.53a.999.999 0 1 1 1.414 1.414l-.53.53c-.425.425-.659.99-.659 1.591s.234 1.166.659 1.591l.53.53a.997.997 0 0 1 0 1.414.999.999 0 0 1-.707.293zM55 12.348c.122 0 .243.005.364.016a4.214 4.214 0 0 1 0-.728 4.214 4.214 0 0 1-.728 0c.021.242.021.485 0 .728.121-.01.242-.016.364-.016z" opacity="1" data-original="#d7d7d7">
		</path>
		<circle cx="42" cy="5" r="3" fill="#d7d7d7" opacity="1" data-original="#d7d7d772" fill-opacity="0.447">
		</circle>
		<path fill="#d7d7d7" d="M42 3a1 1 0 0 1-1-1V1a1 1 0 0 1 2 0v1a1 1 0 0 1-1 1zM42 10a1 1 0 0 1-1-1V8a1 1 0 0 1 2 0v1a1 1 0 0 1-1 1zM46 6h-1a1 1 0 0 1 0-2h1a1 1 0 0 1 0 2zM39 6h-1a1 1 0 0 1 0-2h1a1 1 0 0 1 0 2zM32 23a1 1 0 0 1-1-1v-9a1 1 0 0 1 2 0v9a1 1 0 0 1-1 1zM12.201 31.201a.997.997 0 0 1-.707-.293L5.13 24.544a.999.999 0 1 1 1.414-1.414l6.364 6.364a.999.999 0 0 1-.707 1.707zM21.001 25c-.333 0-.659-.167-.849-.47l-5-8a1.001 1.001 0 0 1 1.696-1.06l5 8a1.001 1.001 0 0 1-.847 1.53zM51.799 31.201a.999.999 0 0 1-.707-1.707l6.364-6.364a.999.999 0 1 1 1.414 1.414l-6.364 6.364a.993.993 0 0 1-.707.293zM42.999 25a1 1 0 0 1-.847-1.53l5-8a1 1 0 1 1 1.696 1.06l-5 8a1 1 0 0 1-.849.47z" opacity="1" data-original="#d7d7d7">
		</path>
		<path fill="#b6b6b6" d="M30.541 53H12.793a1 1 0 0 1-.932-1.363L12.11 51h8.39a5.5 5.5 0 0 0 5.5-5.5V43h2.13l3.343 8.639A1 1 0 0 1 30.541 53zM51.209 53H33.463a1 1 0 0 1-.932-1.363L32.78 51h8.72a5.5 5.5 0 0 0 5.5-5.5V43h1.105a1 1 0 0 1 .932.638l3.104 8A1 1 0 0 1 51.209 53z" opacity="1" data-original="#b6b6b6">
		</path>
		<path fill="#b6b6b6" d="M40.871 43H23.127a1 1 0 0 1-.933-1.359L22.44 41h8.06a5.5 5.5 0 0 0 5.5-5.5V33h1.775a1 1 0 0 1 .933.639l3.096 8A1 1 0 0 1 40.871 43z" opacity="1" data-original="#b6b6b6">
		</path>
	</g>
</svg>
