<svg xmlns="http://www.w3.org/2000/svg" xmlns:xlink="http://www.w3.org/1999/xlink" version="1.1" x="0" y="0" style="enable-background:new 0 0 512 512" xml:space="preserve" class="" viewBox="0 0 402.34 512"><g><path fill="#E62937" d="M39.543 102.738c1.281 0 2.582.035 3.867.11a67.297 67.297 0 0 1 16.5 3.015l1.61.508-.329-1.656a66.872 66.872 0 0 1-1.148-16.703 66.603 66.603 0 0 1 3.484-17.88c-11.62-6.53-24.707-9.155-37.03-7.015a5.187 5.187 0 0 0-2.563 1.238 5.172 5.172 0 0 0-1.516 2.403c-3.52 11.988-2.375 25.27 2.82 37.539a66.513 66.513 0 0 1 14.305-1.559zm0 0" opacity="1" data-original="#e62937" class=""/><path fill="#B7092B" d="M24.559 141.79c7.46-6.798 16.195-10.755 26.101-11.77 1.738-.18 3.528-.27 5.324-.27 9.418 0 19.766 2.46 30.754 7.316l1.903.84-.532-2.008c-3.64-13.835-4.062-26.18-1.246-36.687 2.543-9.461 7.715-17.356 15.422-23.594a68.705 68.705 0 0 0-5.605-7.176C91.004 62.09 84.078 56.785 76.66 53.09a5.197 5.197 0 0 0-5.758.77 5.344 5.344 0 0 0-.828.945c-6.527 9.562-10.344 21.027-11.027 33.152a67.602 67.602 0 0 0 1.164 16.953 68.179 68.179 0 0 0-16.742-3.058c-12.137-.684-23.973 1.808-34.223 7.214a5.164 5.164 0 0 0-2.445 6.34c2.84 7.778 7.344 15.246 13.023 21.598a69.346 69.346 0 0 0 4.735 4.785zm0 0" opacity="1" data-original="#b7092b" class=""/><path fill="#E62937" d="M34.762 158.684a3.532 3.532 0 0 1 1.035-2.262 3.587 3.587 0 0 1 2.273-1.04 79.727 79.727 0 0 1 5.715-.206c21.082 0 40.922 8.215 55.86 23.129 1.957 1.953 3.793 4 5.515 6.12 5.192-4.343 11.903-7.753 19.547-9.827-4.086-7.461-6.36-15.36-6.36-22.778.005-8.129 2.669-15.062 7.708-20.054a24.586 24.586 0 0 1 5.265-3.977c.77-4.215 2.328-8.598 4.711-12.937l.582-1.07-1.16-.368c-14.305-4.523-23.547-14.559-23.547-25.559 0-5.937 2.664-11.539 7.32-16.168l-1.355-2.843a3.139 3.139 0 0 0-4.18-1.48C99.004 74.34 89.656 84.968 85.898 98.948c-2.875 10.727-2.445 23.188 1.247 37.203-13.27-5.863-25.524-8.265-36.586-7.129-14.418 1.48-26.41 9.02-35.637 22.391a3.139 3.139 0 0 0 .8 4.36l18.962 13.042a78.375 78.375 0 0 1 .078-10.132zM341.984 61.8a58.13 58.13 0 0 1-.828 14.536l-.308 1.66 1.601-.531a58.495 58.495 0 0 1 14.313-2.79 61.09 61.09 0 0 1 4.05-.136 57.04 57.04 0 0 1 16.438 2.406c4.707-10.972 5.719-22.882 2.445-33.562a4.483 4.483 0 0 0-3.59-3.13c-12.265-1.987-25.328 1.438-36.332 9.13a57.953 57.953 0 0 1 2.211 12.418zm0 0" opacity="1" data-original="#e62937" class=""/><path fill="#B7092B" d="M387.48 80.23a4.372 4.372 0 0 0-.91-.613c-8.976-4.605-19.312-6.656-29.879-5.937a59.374 59.374 0 0 0-14.554 2.836 58.996 58.996 0 0 0 .843-14.782c-.718-10.55-4.156-20.5-9.94-28.761a4.58 4.58 0 0 0-.731-.817 4.513 4.513 0 0 0-5.024-.61c-6.422 3.29-12.398 7.985-17.285 13.571a60.62 60.62 0 0 0-3.184 3.977c7.657 5.504 12.778 12.722 15.262 21.55 2.55 9.106 2.313 19.84-.715 31.907l-.508 2.015 1.891-.863c9.723-4.43 18.875-6.68 27.211-6.68 1.375 0 2.746.063 4.078.184 8.117.738 15.36 3.762 21.649 8.988a60.192 60.192 0 0 0 1.964-2.132c4.883-5.59 8.727-12.141 11.122-18.946a4.501 4.501 0 0 0-1.29-4.887zm0 0" opacity="1" data-original="#b7092b" class=""/><path fill="#E62937" d="M385.398 115.355c-8.175-11.554-18.699-18-31.27-19.144-9.648-.875-20.296 1.34-31.796 6.582 3.07-12.246 3.32-23.106.707-32.418-3.414-12.145-11.664-21.305-24.527-27.23a2.728 2.728 0 0 0-3.625 1.332l-13.328 28.851c4.988 4.738 7.851 10.547 7.851 16.656 0 1.739-.254 3.442-.687 5.106 4.672 3.097 8.472 8.59 10.523 15.648l.332 1.153 1.074-.54c4.399-2.199 8.97-3.363 13.223-3.363 5.152 0 9.527 1.68 12.652 4.86 5.961 6.062 6.22 16.48.657 26.547l-.582 1.05 1.14.38c5.309 1.769 9.672 4.55 12.7 7.921a47.105 47.105 0 0 0 9.953-5.36l34.351-24.226a2.736 2.736 0 0 0 .652-3.805zm0 0" opacity="1" data-original="#e62937" class=""/><path fill="#E0AA68" d="M23.11 236.371a79.149 79.149 0 0 1 38.53-10.004c1.055 0 2.106.031 3.157.07a80.333 80.333 0 0 1-7.082-6.257 78.903 78.903 0 0 1-19.098-30.836c-13.906.984-24.887 12.554-24.887 26.695.004 8.137 3.641 15.422 9.38 20.332zM349.227 224.883a81.688 81.688 0 0 1 26.89 8.387c5.742-4.239 9.465-11.047 9.465-18.73 0-10.532-7.004-19.427-16.613-22.298a85.159 85.159 0 0 1-19.742 32.64zm0 0" opacity="1" data-original="#e0aa68" class=""/><path fill="#FFE2B8" d="M135.152 114.371c-2.55 4.649-4.191 9.438-4.925 14.07 4.476-2.836 9.941-4.312 16.082-4.312 7.851 0 16.238 2.465 24.082 6.89 5.152-17.21 17.355-29.34 31.558-29.34 10.637 0 20.153 6.805 26.422 17.45.621-3.39 2.086-6.375 4.41-8.656 3.024-2.965 7.203-4.532 12.09-4.532 4.664 0 9.672 1.414 14.48 4.094l1.06.594.378-1.156c3.41-10.45 10.867-17.203 18.992-17.203h.203c3.438.046 6.715 1.28 9.621 3.453.524-1.856.805-3.774.805-5.739 0-11.828-9.965-21.992-24.25-26.515 7.383-13.465 7.36-28.114-1.281-36.672-8.438-8.363-22.742-8.57-36.067-1.762C224.418 10.344 213.95 0 201.73 0c-11.933 0-22.199 9.871-26.761 24.02-13.594-7.313-28.375-7.29-37.02 1.27-8.437 8.362-8.648 22.534-1.777 35.737-14.828 4.352-25.266 14.723-25.266 26.828 0 11.829 9.961 21.993 24.246 26.516zm0 0" opacity="1" data-original="#ffe2b8" class=""/><path fill="#E0AA68" d="M182.637 110.035c5.496-5.265 12.148-8.355 19.312-8.355 6.617 0 12.797 2.636 18.035 7.187 5.29-5.031 8.586-12.105 8.586-19.945 0-15.277-12.496-27.66-27.914-27.66s-27.918 12.383-27.918 27.66c0 8.465 3.848 16.039 9.899 21.113zm0 0" opacity="1" data-original="#e0aa68" class=""/><path fill="#B57A4E" d="M182.637 110.035c4.617-4.422 10.05-7.305 15.914-8.113a27.303 27.303 0 0 1-3.293-13c0-11.309 6.851-21.02 16.66-25.309a28.023 28.023 0 0 0-11.262-2.351c-15.418 0-27.918 12.383-27.918 27.66 0 8.465 3.848 16.039 9.899 21.113zm0 0" opacity="1" data-original="#b57a4e"/><path fill="#FFA05F" d="m233.504 131.04.344 1.151 1.066-.546c7.297-3.73 14.879-5.704 21.934-5.704 8.203 0 15.203 2.641 20.238 7.633 9.785 9.696 10.32 26.516 1.363 42.856l-.586 1.066 1.16.367c6.493 2.055 12.372 5.168 16.997 9.008l.773.64.637-.773a87.113 87.113 0 0 1 5.515-6.074c11.946-11.93 26.801-19.875 42.953-23.187-1.28-7.793-8.238-14.407-17.843-17.602 5.586-10.105 5.629-21.176-.817-27.73-6.297-6.407-17.015-6.704-27.035-1.688-3.234-11.148-11.043-19.066-20.207-19.187-8.945-.122-16.68 7.242-20.156 17.89-10.16-5.656-21.246-5.789-27.758.598-2.254 2.21-3.723 4.992-4.469 8.097 2.418 3.844 4.422 8.274 5.89 13.184zm0 0" opacity="1" data-original="#ffa05f" class=""/><path fill="#FFE2B8" d="M317.176 282.477a81.564 81.564 0 0 1-32.637-17.692l-.883-.785h-.683l-.094 1.465c-.473 7.12-3.106 13.25-7.617 17.719-5.043 4.996-12.047 7.636-20.254 7.636-7.926 0-16.39-2.504-24.297-7.004l-.152 1.297c-5.52 17.106-17.758 28.16-31.192 28.16-13.844 0-26.234-11.523-31.562-29.355l-.153-1.293c-7.582 4.105-15.617 6.39-23.164 6.39h-.004c-8.207 0-15.21-2.64-20.254-7.636-4.125-4.086-6.703-9.613-7.457-15.984l-.168-1.395h-.66l-.843.773a78.825 78.825 0 0 1-30.356 17.36c-.285.09-.566.187-.855.273l81.246 102.442 23.906 10.71.48-.417c3.094-2.68 7.047-4.157 11.133-4.157s8.04 1.477 11.133 4.157l.48.418 25.278-11.325 79.883-101.683c-.086-.024-.172-.051-.254-.074zM223.586 424.992l-11.316-5.066-.48.414c-3.095 2.683-7.048 4.156-11.134 4.156s-8.039-1.473-11.133-4.152l-.48-.418-10.055 4.504-28.234 82.695c-.914 2.68.656 4.875 3.492 4.875h93.887c2.836 0 4.41-2.195 3.492-4.875zm0 0" opacity="1" data-original="#ffe2b8" class=""/><path fill="#FFC987" d="m186.441 384.645-86.421-108.97a78.511 78.511 0 0 1-16.133 6.731l81.246 102.442 23.91 10.71.668-.566zM172.223 507.125l14.218-41.648 5.871-43.184c.067.035.133.066.196.102a17.154 17.154 0 0 1-2.985-2.051l-.48-.418-10.055 4.504-28.234 82.695c-.914 2.68.656 4.875 3.492 4.875h21.469c-2.836 0-4.406-2.195-3.492-4.875zm0 0" opacity="1" data-original="#ffc987"/><path fill="#E0AA68" d="m231.98 284.54-1.054-.571-.371 1.144c-5.516 17.106-17.758 28.16-31.188 28.16-13.844 0-26.234-11.523-31.566-29.355l-.344-1.152-1.066.546c-3.52 1.797-7.102 3.176-10.66 4.133l33.98 107.547a16.986 16.986 0 0 1 10.945-4.008c4.086 0 8.04 1.477 11.133 4.157l.117.105 33.078-105.687c-4.336-1.047-8.718-2.715-13.004-5.02zM200.656 424.496c-2.941 0-5.808-.773-8.344-2.203L180.113 512h41.512l-12.23-89.93a16.963 16.963 0 0 1-8.739 2.426zm0 0" opacity="1" data-original="#e0aa68" class=""/><path fill="#E62937" d="m256.79 374.523-45.353 20.313c3.75 3.074 6.145 7.719 6.145 12.906s-2.394 9.828-6.144 12.906l45.351 20.313c5.176 2.316 9.41-.422 9.41-6.09V380.61c0-5.664-4.234-8.406-9.41-6.086zM183.73 407.738c0-5.183 2.395-9.828 6.145-12.902l-45.352-20.313c-5.175-2.32-9.41.422-9.41 6.086v54.262c0 5.668 4.235 8.406 9.41 6.09l45.352-20.313c-3.75-3.078-6.145-7.718-6.145-12.91zm0 0" opacity="1" data-original="#e62937" class=""/><path fill="#CF043C" d="M156.309 434.871V380.61c0-.273.02-.53.039-.793l-11.825-5.293c-5.175-2.32-9.41.418-9.41 6.086v54.262c0 5.664 4.235 8.406 9.41 6.086l11.825-5.293a8.693 8.693 0 0 1-.04-.793zm0 0" opacity="1" data-original="#cf043c" class=""/><path fill="#B7092B" d="M218.582 407.738c0-9.804-8.023-17.758-17.926-17.758-9.898 0-17.926 7.954-17.926 17.758 0 9.809 8.028 17.758 17.926 17.758 9.903 0 17.926-7.95 17.926-17.758zm0 0" opacity="1" data-original="#b7092b" class=""/><path fill="#7F051A" d="M195.5 407.738c0-7.57 4.793-14.015 11.531-16.57a17.874 17.874 0 0 0-6.375-1.184c-9.902 0-17.926 7.95-17.926 17.754 0 9.809 8.024 17.758 17.926 17.758 2.25 0 4.395-.43 6.375-1.184-6.738-2.55-11.531-9-11.531-16.574zm0 0" opacity="1" data-original="#7f051a" class=""/><path fill="#FF812C" d="M307.45 208.754c0 .266-.012.531-.028.793l-.125 2.824 16.281-16.262a6.469 6.469 0 0 1 4.594-1.898c1.738 0 3.371.676 4.601 1.906a6.508 6.508 0 0 1-.007 9.192l-21.743 21.714 1.032 1.657a81.601 81.601 0 0 1 38.402-3.625c16.734-17.567 25.297-41.336 23.54-65.559a4.925 4.925 0 0 0-4.559-4.555 86.244 86.244 0 0 0-67.196 25.016 85.77 85.77 0 0 0-6.219 6.918c7.118 5.902 11.426 13.543 11.426 21.879zm0 0" opacity="1" data-original="#ff812c" class=""/><path fill="#FF6700" d="M307.031 204.355a85.76 85.76 0 0 1 6.887-7.789c16.039-16.02 37.621-24.976 60.086-25.203.262-3.93.277-7.89-.008-11.867a4.884 4.884 0 0 0-1.433-3.125 4.92 4.92 0 0 0-3.13-1.43 86.255 86.255 0 0 0-67.195 25.016 86.516 86.516 0 0 0-6.218 6.918c5.847 4.848 9.789 10.867 11.011 17.48zm0 0" opacity="1" data-original="#ff6700" class=""/><path fill="#72563C" d="m278.371 239.848-1.308 1.304.152.286a56.09 56.09 0 0 1 2.625 5.824l.547 1.425 1.086-1.07a81.323 81.323 0 0 1 28.625-18.258l23.375-23.343a7.5 7.5 0 0 0-10.602-10.614l-15.523 15.508c-1.137 12.688-12.239 23.852-28.977 28.938zm0 0" opacity="1" data-original="#72563c" class=""/><path fill="#FFAF10" d="M401.191 251.707c-15.683-18.113-38.453-28.504-62.464-28.504a82.566 82.566 0 0 0-58.739 24.508c.07.191.153.387.223.582h67.434c3.585 0 6.5 2.914 6.5 6.5 0 3.582-2.915 6.5-6.5 6.5h-64.739c.031.613.059 1.23.059 1.84 0 .527-.016 1.05-.035 1.57a82.543 82.543 0 0 0 55.797 21.676c24.007.004 46.777-10.387 62.464-28.504a4.682 4.682 0 0 0 1.153-3.082c0-1.102-.387-2.2-1.153-3.086zm0 0" opacity="1" data-original="#ffaf10"/><path fill="#F39600" d="M401.191 251.707a82.55 82.55 0 0 0-8.234-8.215 82.577 82.577 0 0 1-54.23 20.29 82.578 82.578 0 0 1-20.051-2.489h-35.77c.031.617.059 1.23.059 1.84 0 .531-.016 1.055-.035 1.574a82.58 82.58 0 0 0 55.797 21.676c24.007 0 46.777-10.39 62.464-28.504a4.712 4.712 0 0 0 0-6.172zm0 0" opacity="1" data-original="#f39600"/><path fill="#72563C" d="M347.645 247.293h-67.817c1.922 5.02 3 10.105 3.11 15h64.707a7.5 7.5 0 1 0 0-15zm0 0" opacity="1" data-original="#72563c" class=""/><path fill="#FFAF10" d="M63.133 226.402c16.847.32 33.387 6.09 46.73 16.352l1.317-1.5-43.801-43.742a6.73 6.73 0 0 1-1.984-4.778c0-1.804.703-3.504 1.976-4.78a6.722 6.722 0 0 1 4.785-1.981c1.805 0 3.5.699 4.774 1.976l16.898 16.875.281-1.984c.996-7.117 5.282-13.758 11.856-19.012a79.552 79.552 0 0 0-5.613-6.226 80.03 80.03 0 0 0-62.356-23.215 4.571 4.571 0 0 0-2.906 1.328 4.551 4.551 0 0 0-1.328 2.898c-1.676 23.145 6.793 45.844 23.246 62.274 1.957 1.953 4 3.789 6.125 5.515zm0 0" opacity="1" data-original="#ffaf10"/><path fill="#F39600" d="M63.133 226.402c16.847.32 33.387 6.09 46.73 16.352l1.317-1.5-14.336-14.316a79.836 79.836 0 0 1-25.317-17.032A79.78 79.78 0 0 1 48.11 154.32a79.537 79.537 0 0 0-10.117.067 4.557 4.557 0 0 0-2.902 1.324 4.56 4.56 0 0 0-1.328 2.898c-1.68 23.149 6.793 45.848 23.246 62.278 1.957 1.953 4 3.789 6.125 5.515zm0 0" opacity="1" data-original="#f39600"/><path fill="#72563C" d="m122.863 238.523.582-1.066-1.16-.367c-17.262-5.465-28.418-17.59-28.418-30.895 0-.87.051-1.742.145-2.601L77.64 187.238a7.76 7.76 0 1 0-10.969 10.98l51.558 51.493c1.06-3.695 2.586-7.453 4.633-11.188zm0 0" opacity="1" data-original="#72563c" class=""/><path fill="#FF812C" d="M116.523 261.32c0-4.015.668-8.175 1.926-12.332a80.017 80.017 0 0 0-56.808-23.617c-23.266 0-45.328 10.066-60.528 27.621A4.558 4.558 0 0 0 0 255.98c0 1.063.371 2.133 1.113 2.989 15.2 17.554 37.266 27.62 60.528 27.62a80.013 80.013 0 0 0 55.047-21.898 35.298 35.298 0 0 1-.165-3.37zm0 0" opacity="1" data-original="#ff812c" class=""/><path fill="#FF6700" d="M116.613 263.738h-8.52a79.905 79.905 0 0 1-35.675 8.41c-23.27.004-45.332-10.066-60.531-27.62a4.471 4.471 0 0 1-.746-1.227 80.116 80.116 0 0 0-10.028 9.691A4.558 4.558 0 0 0 0 255.98c0 1.063.371 2.133 1.113 2.989 15.2 17.554 37.266 27.62 60.528 27.62a80.013 80.013 0 0 0 55.047-21.898 35.924 35.924 0 0 1-.083-1.132c.004.058.004.12.008.18zm0 0" opacity="1" data-original="#ff6700" class=""/><path fill="#72563C" d="M116.523 261.32c0-4.265.762-8.687 2.176-13.097H52.418a7.757 7.757 0 0 0-7.758 7.757 7.757 7.757 0 0 0 7.758 7.758h64.195a35.067 35.067 0 0 1-.09-2.418zm0 0" opacity="1" data-original="#72563c" class=""/><path fill="#E62937" d="M184.207 141.488a65.732 65.732 0 0 1 8.809 10.817c2.504-.34 5.05-.532 7.644-.532 3.543 0 7.008.344 10.371.97a65.88 65.88 0 0 1 7.903-9.446c4.793-4.746 10.195-8.66 15.82-11.559-5.094-18.168-17.856-31.058-32.805-31.058-14.613 0-27.148 12.316-32.46 29.847 5.23 2.832 10.241 6.524 14.718 10.961zm0 0" opacity="1" data-original="#e62937" class=""/><path fill="#CF043C" d="M184.207 141.488a65.476 65.476 0 0 1 4.828 5.348c.735-20.406 10.574-37.488 24.024-43.668-3.493-1.606-7.227-2.488-11.11-2.488-14.613 0-27.144 12.316-32.46 29.847 5.23 2.832 10.241 6.524 14.718 10.961zm0 0" opacity="1" data-original="#cf043c" class=""/><path fill="#E62937" d="M278.328 176.594c-2.86 5.176-6.582 10.136-11.055 14.57a66.08 66.08 0 0 1-10.921 8.73c.343 2.477.535 5.008.535 7.579 0 3.515-.348 6.953-.977 10.289a66.092 66.092 0 0 1 9.54 7.832c4.788 4.746 8.73 10.09 11.655 15.66 18.336-5.047 31.344-17.691 31.344-32.5 0-14.48-12.43-26.895-30.12-32.16zm0 0" opacity="1" data-original="#e62937" class=""/><path fill="#B7092B" d="M277.79 132.863c-13.735-13.61-40.403-9.258-59.56 9.723a66.428 66.428 0 0 0-8.289 9.96c24.485 4.048 43.657 23.813 46.551 48.442a66.713 66.713 0 0 0 11.485-9.113c19.156-18.98 23.55-45.402 9.812-59.012zm0 0" opacity="1" data-original="#b7092b" class=""/><path fill="#7F051A" d="M277.79 132.863c-13.735-13.61-40.403-9.258-59.56 9.723a66.428 66.428 0 0 0-8.289 9.96 56.211 56.211 0 0 1 22.786 9.212c16.789-15.637 38.714-20.399 52.824-12.192-.742-6.46-3.281-12.265-7.762-16.703zm0 0" opacity="1" data-original="#7f051a" class=""/><path fill="#E62937" d="M217.105 273.465a65.744 65.744 0 0 1-8.804-10.817 57.3 57.3 0 0 1-7.64.528c-3.548 0-7.013-.34-10.376-.965a66.051 66.051 0 0 1-7.902 9.445c-4.793 4.746-10.192 8.657-15.82 11.559 5.093 18.168 17.859 31.058 32.804 31.058 14.617 0 27.149-12.32 32.461-29.847-5.23-2.836-10.242-6.528-14.723-10.961zm0 0" opacity="1" data-original="#e62937" class=""/><path fill="#CF043C" d="M185.844 267.926a67.564 67.564 0 0 1-3.461 3.73c-4.793 4.746-10.192 8.656-15.82 11.559 5.093 18.168 17.859 31.055 32.804 31.055 3.774 0 7.403-.829 10.809-2.348-13.645-6.078-23.649-23.356-24.332-43.996zm0 0" opacity="1" data-original="#cf043c" class=""/><path fill="#B7092B" d="M266.152 224.883a67.09 67.09 0 0 0-10.047-8.207c-4.09 24.254-24.046 43.246-48.906 46.11a66.128 66.128 0 0 0 9.203 11.386c19.157 18.98 45.828 23.336 59.563 9.723 13.738-13.61 9.344-40.032-9.813-59.012zm0 0" opacity="1" data-original="#b7092b" class=""/><path fill="#7F051A" d="M238.121 263.402a67.083 67.083 0 0 1-7.484-8.836 56.282 56.282 0 0 1-23.438 8.223 66.426 66.426 0 0 0 9.203 11.387c19.157 18.98 45.828 23.332 59.563 9.719a25.376 25.376 0 0 0 2.504-2.895c-12.989.598-28.18-5.543-40.348-17.598zm0 0" opacity="1" data-original="#7f051a" class=""/><path fill="#E62937" d="M134.04 223.785a66.026 66.026 0 0 1 10.925-8.73 55.165 55.165 0 0 1-.535-7.582c0-3.516.343-6.95.976-10.286a66.597 66.597 0 0 1-9.543-7.832c-4.785-4.742-8.73-10.09-11.656-15.66-18.336 5.047-31.344 17.692-31.344 32.5 0 14.48 12.43 26.895 30.121 32.16 2.86-5.175 6.582-10.136 11.055-14.57zm0 0" opacity="1" data-original="#e62937" class=""/><path fill="#CF043C" d="M133.305 186.656c-3.64-4.039-6.711-8.422-9.098-12.96-18.336 5.046-31.344 17.69-31.344 32.5 0 12.538 9.32 23.523 23.305 29.663-4.934-5.437-7.809-11.906-7.809-18.855 0-13.02 10.055-24.363 24.946-30.348zm0 0" opacity="1" data-original="#cf043c" class=""/><path fill="#B7092B" d="M144.82 213.96a66.862 66.862 0 0 0-11.484 9.114c-19.156 18.98-23.55 45.403-9.813 59.012 13.739 13.61 40.407 9.258 59.563-9.723a66.664 66.664 0 0 0 8.289-9.96c-24.484-4.048-43.652-23.813-46.555-48.442zm0 0" opacity="1" data-original="#b7092b" class=""/><path fill="#7F051A" d="M149.074 229.613a54.893 54.893 0 0 1-4.254-15.652 66.862 66.862 0 0 0-11.484 9.113c-19.156 18.985-23.55 45.403-9.813 59.016 7.813 7.738 19.805 9.66 32.223 6.394-4.043-1.293-7.68-3.41-10.691-6.394-12.22-12.11-10.082-34.348 4.02-52.477zm0 0" opacity="1" data-original="#7f051a" class=""/><path fill="#B7092B" d="M194.117 152.164a66.154 66.154 0 0 0-9.207-11.387c-19.156-18.984-45.824-23.336-59.562-9.722-13.739 13.61-9.344 40.03 9.812 59.011a67.314 67.314 0 0 0 10.05 8.207c4.087-24.253 24.044-43.242 48.907-46.109zm0 0" opacity="1" data-original="#b7092b" class=""/><path fill="#7F051A" d="M154.172 176.18c-15.504-17.305-19.465-39.551-9.602-53-7.465.343-14.207 2.906-19.222 7.875-13.739 13.61-9.344 40.035 9.812 59.011a67.314 67.314 0 0 0 10.05 8.207 55.002 55.002 0 0 1 8.962-22.093zm0 0" opacity="1" data-original="#7f051a" class=""/><path fill="#FF6666" d="M257.887 207.473c0 31.316-25.625 56.703-57.227 56.703-31.605 0-57.23-25.387-57.23-56.703 0-31.313 25.62-56.7 57.23-56.7 31.602 0 57.227 25.387 57.227 56.7zm0 0" opacity="1" data-original="#ff6666" class=""/><path fill="#FE3745" d="M165.648 207.473c0-27.543 19.832-50.496 46.122-55.621a58.132 58.132 0 0 0-11.11-1.079c-31.605 0-57.23 25.387-57.23 56.7 0 31.316 25.62 56.703 57.23 56.703 3.8 0 7.516-.375 11.11-1.078-26.29-5.125-46.122-28.078-46.122-55.625zm0 0" opacity="1" data-original="#fe3745"/><path fill="#B7092B" d="M224.063 207.473c0-12.809-10.477-23.192-23.407-23.192-12.926 0-23.406 10.383-23.406 23.192s10.48 23.195 23.406 23.195c12.93 0 23.406-10.387 23.406-23.195zm0 0" opacity="1" data-original="#b7092b" class=""/><path fill="#7F051A" d="M195.352 207.473c0-9.625 5.925-17.883 14.359-21.391a23.563 23.563 0 0 0-9.055-1.797c-12.926 0-23.406 10.38-23.406 23.188 0 12.812 10.48 23.195 23.406 23.195 3.211 0 6.27-.64 9.055-1.8-8.438-3.509-14.36-11.763-14.36-21.395zm0 0" opacity="1" data-original="#7f051a" class=""/></g></svg>