<svg xmlns="http://www.w3.org/2000/svg" version="1.1" xmlns:xlink="http://www.w3.org/1999/xlink" width="512" height="512" x="0" y="0" viewBox="0 0 510 510" style="enable-background:new 0 0 512 512" xml:space="preserve" class=""><defs><linearGradient xlink:href="#a" id="e" x1="374.306" x2="374.306" y1="217.333" y2="297.876" gradientUnits="userSpaceOnUse"></linearGradient><linearGradient xlink:href="#b" id="f" x1="366.557" x2="374.557" y1="277.065" y2="225.732" gradientUnits="userSpaceOnUse"></linearGradient><linearGradient xlink:href="#a" id="g" x1="292.946" x2="327.005" y1="174.388" y2="208.446" gradientUnits="userSpaceOnUse"></linearGradient><linearGradient xlink:href="#b" id="h" x1="314.05" x2="294.05" y1="192.781" y2="201.448" gradientUnits="userSpaceOnUse"></linearGradient><linearGradient xlink:href="#a" id="i" x1="250.342" x2="298.588" y1="244.502" y2="244.502" gradientUnits="userSpaceOnUse"></linearGradient><linearGradient xlink:href="#b" id="j" x1="274.149" x2="304.149" y1="232.372" y2="267.372" gradientUnits="userSpaceOnUse"></linearGradient><linearGradient xlink:href="#a" id="k" x1="117.5" x2="219.666" y1="249.665" y2="249.665" gradientUnits="userSpaceOnUse"></linearGradient><linearGradient xlink:href="#a" id="l" x1="170.317" x2="392.328" y1="320.407" y2="320.407" gradientUnits="userSpaceOnUse"></linearGradient><linearGradient xlink:href="#b" id="m" x1="283.578" x2="283.578" y1="323.5" y2="367.46" gradientUnits="userSpaceOnUse"></linearGradient><linearGradient xlink:href="#a" id="n" x1="231.587" x2="340.674" y1="282.226" y2="354.95" gradientUnits="userSpaceOnUse"></linearGradient><linearGradient xlink:href="#b" id="o" x1="299.019" x2="225.019" y1="359.906" y2="365.906" gradientUnits="userSpaceOnUse"></linearGradient><linearGradient xlink:href="#b" id="p" x1="271.188" x2="250.855" y1="264.394" y2="221.394" gradientUnits="userSpaceOnUse"></linearGradient><linearGradient xlink:href="#c" id="q" x1="410.684" x2="451.153" y1="155.253" y2="237.052" gradientUnits="userSpaceOnUse"></linearGradient><linearGradient xlink:href="#d" id="r" x1="432.359" x2="397.859" y1="196.819" y2="143.819" gradientUnits="userSpaceOnUse"></linearGradient><linearGradient xlink:href="#d" id="s" x1="432.357" x2="432.357" y1="210.938" y2="251.874" gradientUnits="userSpaceOnUse"></linearGradient><linearGradient xlink:href="#d" id="t" x1="441.123" x2="503.764" y1="172.668" y2="141.348" gradientUnits="userSpaceOnUse"></linearGradient><linearGradient xlink:href="#c" id="u" x1="244.927" x2="327.363" y1="51.437" y2="202.357" gradientUnits="userSpaceOnUse"></linearGradient><linearGradient xlink:href="#d" id="v" x1="277.333" x2="277.333" y1="131.903" y2="226.1" gradientUnits="userSpaceOnUse"></linearGradient><linearGradient xlink:href="#d" id="w" x1="298.347" x2="375.871" y1="45.627" y2="11.21" gradientUnits="userSpaceOnUse"></linearGradient><linearGradient xlink:href="#d" id="x" x1="200.304" x2="127.588" y1="68.497" y2="90.058" gradientUnits="userSpaceOnUse"></linearGradient><linearGradient xlink:href="#d" id="y" x1="274.717" x2="310.229" y1="125.265" y2="235.749" gradientUnits="userSpaceOnUse"></linearGradient><linearGradient xlink:href="#d" id="z" x1="349.091" x2="450.132" y1="66.87" y2="63.91" gradientUnits="userSpaceOnUse"></linearGradient><linearGradient xlink:href="#c" id="A" x1="110.35" x2="173.758" y1="145.706" y2="261.791" gradientUnits="userSpaceOnUse"></linearGradient><linearGradient xlink:href="#d" id="B" x1="135.276" x2="135.276" y1="207.599" y2="280.054" gradientUnits="userSpaceOnUse"></linearGradient><linearGradient xlink:href="#d" id="C" x1="151.44" x2="211.069" y1="141.237" y2="114.764" gradientUnits="userSpaceOnUse"></linearGradient><linearGradient xlink:href="#d" id="D" x1="76.027" x2="20.095" y1="158.829" y2="175.413" gradientUnits="userSpaceOnUse"></linearGradient><linearGradient xlink:href="#d" id="E" x1="133.264" x2="160.579" y1="202.493" y2="287.475" gradientUnits="userSpaceOnUse"></linearGradient><linearGradient xlink:href="#d" id="F" x1="190.471" x2="268.19" y1="157.577" y2="155.3" gradientUnits="userSpaceOnUse"></linearGradient><linearGradient xlink:href="#b" id="G" x1="262.242" x2="262.242" y1="484.5" y2="504.16" gradientUnits="userSpaceOnUse"></linearGradient></defs><g><linearGradient id="a"><stop offset="0" stop-color="#f89580"></stop><stop offset="1" stop-color="#c4573a"></stop></linearGradient><linearGradient xlink:href="#a" id="e" x1="374.306" x2="374.306" y1="217.333" y2="297.876" gradientUnits="userSpaceOnUse"></linearGradient><linearGradient id="b"><stop offset="0" stop-color="#c4573a" stop-opacity="0"></stop><stop offset="1" stop-color="#883f2e"></stop></linearGradient><linearGradient xlink:href="#b" id="f" x1="366.557" x2="374.557" y1="277.065" y2="225.732" gradientUnits="userSpaceOnUse"></linearGradient><linearGradient xlink:href="#a" id="g" x1="292.946" x2="327.005" y1="174.388" y2="208.446" gradientUnits="userSpaceOnUse"></linearGradient><linearGradient xlink:href="#b" id="h" x1="314.05" x2="294.05" y1="192.781" y2="201.448" gradientUnits="userSpaceOnUse"></linearGradient><linearGradient xlink:href="#a" id="i" x1="250.342" x2="298.588" y1="244.502" y2="244.502" gradientUnits="userSpaceOnUse"></linearGradient><linearGradient xlink:href="#b" id="j" x1="274.149" x2="304.149" y1="232.372" y2="267.372" gradientUnits="userSpaceOnUse"></linearGradient><linearGradient xlink:href="#a" id="k" x1="117.5" x2="219.666" y1="249.665" y2="249.665" gradientUnits="userSpaceOnUse"></linearGradient><linearGradient xlink:href="#a" id="l" x1="170.317" x2="392.328" y1="320.407" y2="320.407" gradientUnits="userSpaceOnUse"></linearGradient><linearGradient xlink:href="#b" id="m" x1="283.578" x2="283.578" y1="323.5" y2="367.46" gradientUnits="userSpaceOnUse"></linearGradient><linearGradient xlink:href="#a" id="n" x1="231.587" x2="340.674" y1="282.226" y2="354.95" gradientUnits="userSpaceOnUse"></linearGradient><linearGradient xlink:href="#b" id="o" x1="299.019" x2="225.019" y1="359.906" y2="365.906" gradientUnits="userSpaceOnUse"></linearGradient><linearGradient xlink:href="#b" id="p" x1="271.188" x2="250.855" y1="264.394" y2="221.394" gradientUnits="userSpaceOnUse"></linearGradient><linearGradient id="c"><stop offset="0" stop-color="#02905d"></stop><stop offset="1" stop-color="#3e5959"></stop></linearGradient><linearGradient xlink:href="#c" id="q" x1="410.684" x2="451.153" y1="155.253" y2="237.052" gradientUnits="userSpaceOnUse"></linearGradient><linearGradient id="d"><stop offset="0" stop-color="#384949" stop-opacity="0"></stop><stop offset="1" stop-color="#384949"></stop></linearGradient><linearGradient xlink:href="#d" id="r" x1="432.359" x2="397.859" y1="196.819" y2="143.819" gradientUnits="userSpaceOnUse"></linearGradient><linearGradient xlink:href="#d" id="s" x1="432.357" x2="432.357" y1="210.938" y2="251.874" gradientUnits="userSpaceOnUse"></linearGradient><linearGradient xlink:href="#d" id="t" x1="441.123" x2="503.764" y1="172.668" y2="141.348" gradientUnits="userSpaceOnUse"></linearGradient><linearGradient xlink:href="#c" id="u" x1="244.927" x2="327.363" y1="51.437" y2="202.357" gradientUnits="userSpaceOnUse"></linearGradient><linearGradient xlink:href="#d" id="v" x1="277.333" x2="277.333" y1="131.903" y2="226.1" gradientUnits="userSpaceOnUse"></linearGradient><linearGradient xlink:href="#d" id="w" x1="298.347" x2="375.871" y1="45.627" y2="11.21" gradientUnits="userSpaceOnUse"></linearGradient><linearGradient xlink:href="#d" id="x" x1="200.304" x2="127.588" y1="68.497" y2="90.058" gradientUnits="userSpaceOnUse"></linearGradient><linearGradient xlink:href="#d" id="y" x1="274.717" x2="310.229" y1="125.265" y2="235.749" gradientUnits="userSpaceOnUse"></linearGradient><linearGradient xlink:href="#d" id="z" x1="349.091" x2="450.132" y1="66.87" y2="63.91" gradientUnits="userSpaceOnUse"></linearGradient><linearGradient xlink:href="#c" id="A" x1="110.35" x2="173.758" y1="145.706" y2="261.791" gradientUnits="userSpaceOnUse"></linearGradient><linearGradient xlink:href="#d" id="B" x1="135.276" x2="135.276" y1="207.599" y2="280.054" gradientUnits="userSpaceOnUse"></linearGradient><linearGradient xlink:href="#d" id="C" x1="151.44" x2="211.069" y1="141.237" y2="114.764" gradientUnits="userSpaceOnUse"></linearGradient><linearGradient xlink:href="#d" id="D" x1="76.027" x2="20.095" y1="158.829" y2="175.413" gradientUnits="userSpaceOnUse"></linearGradient><linearGradient xlink:href="#d" id="E" x1="133.264" x2="160.579" y1="202.493" y2="287.475" gradientUnits="userSpaceOnUse"></linearGradient><linearGradient xlink:href="#d" id="F" x1="190.471" x2="268.19" y1="157.577" y2="155.3" gradientUnits="userSpaceOnUse"></linearGradient><linearGradient xlink:href="#b" id="G" x1="262.242" x2="262.242" y1="484.5" y2="504.16" gradientUnits="userSpaceOnUse"></linearGradient><path fill="url(&quot;#e&quot;)" d="m348.348 298.818-23.462-23.462c-8.127-8.127-12.604-18.933-12.604-30.427 0-7.487-2.916-14.526-8.21-19.821l-6.364-6.363 10.606-10.607 6.364 6.364c8.127 8.128 12.604 18.935 12.604 30.428 0 7.488 2.916 14.527 8.21 19.82l12.856 12.856 8.528-8.527c10.464-10.464 24.377-16.228 39.176-16.228 10.792 0 20.938-4.203 28.569-11.833l15.677-15.677 10.606 10.606-15.677 15.677c-10.464 10.464-24.377 16.227-39.176 16.227-10.792 0-20.938 4.203-28.569 11.834z" opacity="1" data-original="url(#e)"></path><path fill="url(&quot;#f&quot;)" d="m348.348 298.818-23.462-23.462c-8.127-8.127-12.604-18.933-12.604-30.427 0-7.487-2.916-14.526-8.21-19.821l-6.364-6.363 10.606-10.607 6.364 6.364c8.127 8.128 12.604 18.935 12.604 30.428 0 7.488 2.916 14.527 8.21 19.82l12.856 12.856 8.528-8.527c10.464-10.464 24.377-16.228 39.176-16.228 10.792 0 20.938-4.203 28.569-11.833l15.677-15.677 10.606 10.606-15.677 15.677c-10.464 10.464-24.377 16.227-39.176 16.227-10.792 0-20.938 4.203-28.569 11.834z" opacity="1" data-original="url(#f)"></path><path fill="url(&quot;#g&quot;)" d="m288.393 229.097-4.853-14.193 12.892-4.407c16.788-5.739 28.068-21.516 28.068-39.258v-9.558h15v9.558c0 24.157-15.357 45.637-38.215 53.452z" opacity="1" data-original="url(#g)"></path><path fill="url(&quot;#h&quot;)" d="m288.393 229.097-4.853-14.193 12.892-4.407c16.788-5.739 28.068-21.516 28.068-39.258v-9.558h15v9.558c0 24.157-15.357 45.637-38.215 53.452z" opacity="1" data-original="url(#h)"></path><path fill="url(&quot;#i&quot;)" d="m270.503 327.324-14.177-27.858a55.264 55.264 0 0 1-5.984-24.951c0-14.695 5.723-28.51 16.113-38.9 11.048-11.048 17.133-25.738 17.133-41.363V161.68h15v32.572c0 19.631-7.645 38.088-21.526 51.969-7.558 7.557-11.72 17.605-11.72 28.293a40.206 40.206 0 0 0 4.352 18.148l14.177 27.858z" opacity="1" data-original="url(#i)"></path><path fill="url(&quot;#j&quot;)" d="m270.503 327.324-14.177-27.858a55.264 55.264 0 0 1-5.984-24.951c0-14.695 5.723-28.51 16.113-38.9 11.048-11.048 17.133-25.738 17.133-41.363V161.68h15v32.572c0 19.631-7.645 38.088-21.526 51.969-7.558 7.557-11.72 17.605-11.72 28.293a40.206 40.206 0 0 0 4.352 18.148l14.177 27.858z" opacity="1" data-original="url(#j)"></path><path fill="url(&quot;#k&quot;)" d="M219.666 288.486h-32.912c-8.538 0-16.564-3.325-22.602-9.362a16.853 16.853 0 0 0-11.995-4.969c-19.11 0-34.657-15.547-34.657-34.656v-28.655h15v28.655c0 10.838 8.818 19.656 19.656 19.656 8.538 0 16.565 3.325 22.602 9.362a16.852 16.852 0 0 0 11.995 4.968h32.912v15.001z" opacity="1" data-original="url(#k)"></path><path fill="url(&quot;#l&quot;)" d="M293.5 437h-15v-88.679c0-16.922-13.767-30.688-30.688-30.688-20.207 0-36.646-16.439-36.646-36.646a21.503 21.503 0 0 0-6.34-15.306l-34.508-34.509 10.606-10.606 34.509 34.509c6.922 6.922 10.733 16.125 10.733 25.913 0 11.936 9.71 21.646 21.646 21.646 25.193 0 45.688 20.496 45.688 45.688v.517a130.19 130.19 0 0 1 30.649-38.304 52.034 52.034 0 0 0 18.266-39.62c0-17.924 6.979-34.774 19.653-47.448l19.652-19.652 10.606 10.606-19.652 19.652c-9.84 9.84-15.26 22.924-15.26 36.841a67.013 67.013 0 0 1-23.525 51.026 115.052 115.052 0 0 0-40.391 87.608V437z" opacity="1" data-original="url(#l)"></path><path fill="url(&quot;#m&quot;)" d="M334.298 298.818a52.13 52.13 0 0 1-10.148 11.716 130.177 130.177 0 0 0-30.649 38.304v-.517c0-25.193-20.496-45.688-45.688-45.688a21.521 21.521 0 0 1-12.252-3.814h-19.747c6.274 11.213 18.262 18.814 31.998 18.814 16.922 0 30.688 13.767 30.688 30.688V414h15v-4.452a115.052 115.052 0 0 1 40.391-87.608 67.044 67.044 0 0 0 17.452-23.122z" opacity="1" data-original="url(#m)"></path><path fill="url(&quot;#n&quot;)" d="m476.911 208.009-24.95 61.104a22.185 22.185 0 0 1-15.36 13.158c-12.748 3.032-22.794 12.846-26.536 25.405l-5.046 16.932c-5.325 17.869-20.596 31.183-39.103 33.459a62.418 62.418 0 0 0-8.002 1.519c-10.28 2.657-20.344-4.893-20.344-15.511 0-27.678-10.778-53.699-30.349-73.27l-68.876-68.876-24.749 24.749 68.162 68.161c13.192 13.192 20.934 31.043 20.811 49.699-.002.338-.007.677-.014 1.014-.529 25.112-31.64 36.328-48.239 17.477a181.826 181.826 0 0 0-26.834-24.9l-49.056-37.078a126.51 126.51 0 0 0-59.368-24.416l-34.703-4.647a41.038 41.038 0 0 1-34.236-30.002l-6.878-25.369-14.478 3.925 6.878 25.369a56.007 56.007 0 0 0 46.723 40.944l34.703 4.647a111.466 111.466 0 0 1 52.314 21.515l49.056 37.078c1.634 1.235 3.269 2.681 4.894 4.295 22.432 22.275 24.018 58.008 4.558 82.922-13.56 17.361-22.052 38.305-24.298 60.689-.646 6.441 4.512 11.999 10.986 11.999h92.553c9.252 0 14.391-10.707 8.603-17.926l-.444-.554c-7.802-9.73-7.766-23.797.53-33.109.309-.347.625-.688.949-1.024 13.052-13.533 20.803-31.301 20.803-50.103v-.184c0-16.581 11.766-31.107 28.119-33.847a47.745 47.745 0 0 1 1.736-.258c24.289-3.157 44.703-19.72 51.698-43.193l5.331-17.888c2.262-7.592 8.462-13.232 16.141-15.178 11.383-2.884 20.811-11.075 25.253-21.953l24.95-61.104z" opacity="1" data-original="url(#n)"></path><path fill="url(&quot;#o&quot;)" d="m315.598 492.074-.311-.388c-7.963-9.931-7.839-24.335.782-33.701.346-.375.7-.744 1.064-1.107 13.318-13.263 20.303-31.615 20.303-50.41v-62.395c0-27.678-10.778-53.699-30.349-73.27l-57.658-57.657-13.632 13.632 68.125 68.125c12.991 12.99 20.673 30.515 20.747 48.887.096 23.729-11.825 45.51-31.846 58.218l-12.854 8.159c-30.954 19.648-50.672 51.882-54.278 87.834-.646 6.441 4.512 11.999 10.985 11.999h70.318c9.253 0 14.392-10.707 8.604-17.926z" opacity="1" data-original="url(#o)"></path><path fill="url(&quot;#p&quot;)" d="m307.221 270.805-68.876-68.876-24.749 24.749 68.162 68.161a72.296 72.296 0 0 1 11.663 15.296h38.482c-5.059-14.638-13.408-28.056-24.682-39.33z" opacity="1" data-original="url(#p)"></path><path fill="url(&quot;#q&quot;)" d="M480.981 157.589c-6.869-17.608-23.983-30.089-44.022-30.089-15.309 0-28.917 7.281-37.551 18.569-5.396 7.054-13.8 11.098-22.677 11.372l-.382.014c-16.685.708-30.237 14.332-30.861 31.02C344.801 206.871 359.51 222 377.752 222l.363-.002a5.486 5.486 0 0 1 4.421 2.158c10.332 13.421 26.557 22.072 44.804 22.072 18.251 0 34.479-8.654 44.811-22.08a5.552 5.552 0 0 1 4.593-2.163c.321.01.644.016.968.016 17.832 0 32.287-14.456 32.287-32.287.001-16.73-12.721-30.487-29.018-32.125z" opacity="1" data-original="url(#q)"></path><path fill="url(&quot;#r&quot;)" d="M480.981 157.589c-6.869-17.608-23.983-30.089-44.022-30.089-15.309 0-28.917 7.281-37.551 18.569-5.396 7.054-13.8 11.098-22.677 11.372l-.382.014c-16.685.708-30.237 14.332-30.861 31.02C344.801 206.871 359.51 222 377.752 222l.363-.002a5.486 5.486 0 0 1 4.421 2.158c10.332 13.421 26.557 22.072 44.804 22.072 18.251 0 34.479-8.654 44.811-22.08a5.552 5.552 0 0 1 4.593-2.163c.321.01.644.016.968.016 17.832 0 32.287-14.456 32.287-32.287.001-16.73-12.721-30.487-29.018-32.125z" opacity="1" data-original="url(#r)"></path><path fill="url(&quot;#s&quot;)" d="M483.855 189.711c0 31.211-25.302 56.513-56.512 56.513-19.27 0-36.287-9.648-46.484-24.372 16.371-1.563 29.183-15.357 29.183-32.141 0-8.111-2.99-15.525-7.937-21.195 33.445-6.277 81.75.794 81.75 21.195z" opacity="1" data-original="url(#s)"></path><path fill="url(&quot;#t&quot;)" d="M445.424 189.711c0 11.043 5.547 20.794 14.007 26.613-6.684 3.623-14.343 5.676-22.473 5.676-26.096 0-47.252-21.156-47.252-47.252s21.156-47.246 47.252-47.246c20.045 0 37.171 12.477 44.036 30.087a32.274 32.274 0 0 0-3.281-.168c-17.83.001-32.289 14.46-32.289 32.29z" opacity="1" data-original="url(#t)"></path><path fill="url(&quot;#u&quot;)" d="M437.107 71.903C424.393 59.189 407 54.009 390.471 56.357c-4.785-17.847-21.065-30.991-40.422-30.991a41.64 41.64 0 0 0-22.742 6.726C318.629 13.158 299.524 0 277.333 0s-41.295 13.158-49.974 32.092a41.64 41.64 0 0 0-22.742-6.726c-19.357 0-35.637 13.144-40.422 30.991-16.529-2.349-33.922 2.831-46.636 15.545-21.463 21.463-21.463 56.262 0 77.725 14.301 14.301 34.521 19.06 52.773 14.302 7.57 10.796 20.098 17.86 34.284 17.86 12.384 0 23.507-5.382 31.17-13.93 10.077 11.634 24.947 19.003 41.546 19.003s31.469-7.37 41.546-19.003c7.663 8.548 18.786 13.93 31.17 13.93 14.186 0 26.715-7.065 34.284-17.86 18.253 4.757 38.472-.001 52.773-14.302 21.465-21.463 21.465-56.261.002-77.724z" opacity="1" data-original="url(#u)"></path><path fill="url(&quot;#v&quot;)" d="M117.56 149.627c14.301 14.301 34.521 19.06 52.773 14.302 7.57 10.796 20.098 17.86 34.284 17.86 12.384 0 23.507-5.382 31.17-13.93 10.077 11.634 24.947 19.003 41.546 19.003s31.469-7.37 41.546-19.003c7.663 8.548 18.786 13.93 31.17 13.93 14.186 0 26.715-7.065 34.284-17.86 18.253 4.757 38.472-.001 52.773-14.302 11.761-11.761 17.062-27.526 15.933-42.907H101.626c-1.128 15.382 4.173 31.146 15.934 42.907z" opacity="1" data-original="url(#v)"></path><path fill="url(&quot;#w&quot;)" d="M308.195 67.22c0-14.727 7.613-27.669 19.112-35.128C318.629 13.158 299.524 0 277.333 0c-30.353 0-54.96 24.606-54.96 54.96s24.606 54.96 54.96 54.96c15.617 0 29.701-6.524 39.707-16.983-5.537-7.098-8.845-16.018-8.845-25.717z" opacity="1" data-original="url(#w)" class=""></path><path fill="url(&quot;#x&quot;)" d="M246.471 67.22c0 20.825-15.211 38.1-35.132 41.313-.541-13.317-5.885-26.465-16.057-36.629-8.751-8.751-19.709-13.934-31.09-15.549 4.777-17.849 21.071-30.989 40.425-30.989 23.117 0 41.854 18.737 41.854 41.854z" opacity="1" data-original="url(#x)"></path><path fill="url(&quot;#y&quot;)" d="M308.195 139.936c0-14.049 6.93-26.472 17.549-34.063-9.28-17.222-27.477-28.929-48.411-28.929-30.353 0-54.96 24.606-54.96 54.96s24.606 54.96 54.96 54.96c16.6 0 31.469-7.37 41.546-19.003-6.64-7.409-10.684-17.194-10.684-27.925z" opacity="1" data-original="url(#y)"></path><path fill="url(&quot;#z&quot;)" d="M390.474 56.355c-11.381 1.615-22.339 6.798-31.09 15.549-10.172 10.163-15.516 23.311-16.057 36.629-19.921-3.213-35.132-20.487-35.132-41.313 0-23.117 18.737-41.854 41.854-41.854 19.355 0 35.648 13.14 40.425 30.989z" opacity="1" data-original="url(#z)"></path><path fill="url(&quot;#A&quot;)" d="M258.171 161.448c-9.779-9.779-23.158-13.764-35.871-11.957-3.68-13.728-16.203-23.838-31.092-23.838a32.033 32.033 0 0 0-17.493 5.173c-6.675-14.563-21.371-24.684-38.439-24.684s-31.763 10.121-38.439 24.684a32.03 32.03 0 0 0-17.493-5.173c-14.889 0-27.411 10.11-31.092 23.838-12.714-1.807-26.092 2.178-35.871 11.957-16.509 16.509-16.509 43.275 0 59.784 11 11 26.553 14.66 40.592 11.001 5.822 8.304 15.459 13.738 26.371 13.738 9.525 0 18.081-4.14 23.975-10.715 7.751 8.949 19.188 14.617 31.956 14.617s24.205-5.669 31.956-14.617c5.894 6.575 14.45 10.715 23.975 10.715 10.912 0 20.548-5.434 26.371-13.738 14.04 3.659 29.592-.001 40.592-11.001 16.511-16.509 16.511-43.275.002-59.784z" opacity="1" data-original="url(#A)"></path><path fill="url(&quot;#B&quot;)" d="M12.382 221.232c11 11 26.553 14.66 40.592 11.001 5.822 8.304 15.459 13.738 26.371 13.738 9.525 0 18.081-4.14 23.975-10.715 7.751 8.949 19.188 14.617 31.956 14.617s24.205-5.669 31.956-14.617c5.894 6.575 14.45 10.715 23.975 10.715 10.912 0 20.548-5.434 26.371-13.738 14.04 3.659 29.592-.001 40.592-11.001 9.046-9.046 13.124-21.172 12.256-33.003H.126c-.868 11.831 3.209 23.957 12.256 33.003z" opacity="1" data-original="url(#B)"></path><path fill="url(&quot;#C&quot;)" d="M159.015 157.846c0-11.328 5.856-21.282 14.7-27.02-6.675-14.563-21.371-24.684-38.439-24.684-23.347 0-42.274 18.927-42.274 42.274s18.927 42.274 42.274 42.274c12.012 0 22.846-5.018 30.542-13.063a32.045 32.045 0 0 1-6.803-19.781z" opacity="1" data-original="url(#C)"></path><path fill="url(&quot;#D&quot;)" d="M111.538 157.846c0 16.018-11.7 29.306-27.023 31.777-.416-10.243-4.527-20.356-12.351-28.174a42.065 42.065 0 0 0-23.914-11.96c3.675-13.729 16.207-23.836 31.094-23.836 17.782 0 32.194 14.412 32.194 32.193z" opacity="1" data-original="url(#D)"></path><path fill="url(&quot;#E&quot;)" d="M159.015 213.778c0-10.806 5.33-20.362 13.499-26.201-7.138-13.247-21.135-22.252-37.237-22.252-23.347 0-42.274 18.927-42.274 42.274s18.927 42.274 42.274 42.274c12.768 0 24.205-5.669 31.956-14.617a32.069 32.069 0 0 1-8.218-21.478z" opacity="1" data-original="url(#E)"></path><path fill="url(&quot;#F&quot;)" d="M222.302 149.489a42.065 42.065 0 0 0-23.914 11.96c-7.824 7.817-11.934 17.931-12.351 28.174-15.323-2.471-27.023-15.758-27.023-31.777 0-17.781 14.412-32.193 32.193-32.193 14.888 0 27.42 10.107 31.095 23.836z" opacity="1" data-original="url(#F)"></path><path fill="url(&quot;#G&quot;)" d="M316.767 457.388a77.98 77.98 0 0 0 4.182-4.721h-103.2a117.688 117.688 0 0 0-14.159 45.334c-.646 6.441 4.512 11.999 10.986 11.999h92.553c9.252 0 14.391-10.707 8.603-17.926l-.444-.554c-7.802-9.73-7.766-23.797.53-33.109.308-.346.625-.687.949-1.023z" opacity="1" data-original="url(#G)"></path></g></svg>