<svg xmlns="http://www.w3.org/2000/svg" version="1.1" xmlns:xlink="http://www.w3.org/1999/xlink" width="512" height="512" x="0" y="0" viewBox="0 0 512 512" style="enable-background:new 0 0 512 512" xml:space="preserve" class=""><g><path fill="#E8EDF2" d="M512 256c0-17.138-5.184-33.062-14.061-46.302 8.699-8.989 14.061-21.227 14.061-34.724 0-27.587-22.364-49.951-49.951-49.951-5.089 0-9.998.766-14.624 2.18.019-.727.055-1.449.055-2.18 0-45.979-37.273-83.252-83.252-83.252-15.691 0-30.364 4.347-42.892 11.893C315.312 23.076 288.355 0 256 0c-28.966 0-53.601 18.496-62.769 44.318a83.413 83.413 0 0 0-20.483-2.546c-41.541 0-75.967 30.427-82.228 70.209-37.992 7.72-66.585 41.31-66.585 81.581 0 4.271.324 8.465.944 12.563C9.77 217.52 0 235.617 0 256c0 26.091 16.009 48.434 38.735 57.769-9.226 10.883-14.8 24.959-14.8 40.343 0 34.484 27.955 62.439 62.439 62.439.302 0 .6-.019.901-.023a83.872 83.872 0 0 0-.901 12.22c0 45.979 37.273 83.252 83.252 83.252 25.731 0 48.729-11.678 64-30.017 15.271 18.339 38.269 30.017 64 30.017 24.673 0 46.829-10.742 62.074-27.794a49.705 49.705 0 0 0 25.34 6.909c27.587 0 49.951-22.364 49.951-49.951 0-.422-.021-.838-.032-1.257a62.74 62.74 0 0 0 12.52 1.257c34.484 0 62.439-27.955 62.439-62.439 0-23.764-13.278-44.424-32.818-54.975C498.22 308.649 512 283.942 512 256z" opacity="1" data-original="#e8edf2" class=""></path><path fill="#D9E7EC" d="M512 256c0-17.138-5.184-33.062-14.061-46.302 9.7-10.024 15.251-24.087 13.845-39.431-2.18-23.781-21.341-42.887-45.125-45.035-6.738-.609-13.225.134-19.235 1.972.019-.727.055-1.449.055-2.18 0-24.872-10.921-47.182-28.213-62.437a49.708 49.708 0 0 1 9.165 28.82c0 9.2-2.491 17.814-6.832 25.214a22.174 22.174 0 0 0-.965 20.599c5.002 10.695 7.798 22.626 7.798 35.213 0 19.869-6.968 38.103-18.588 52.41-6.89 8.484-6.469 20.718.786 28.892 9.781 11.021 15.721 25.527 15.721 41.422 0 30.217-20.303 58.079-57.971 61.336-8.754.757-16.411 6.337-19.357 14.615-6.587 18.51-25.825 36.439-47.55 36.439-4.921 0-9.675-.714-14.164-2.043-7.083-2.096-14.768-.636-20.476 4.052-14.363 11.793-32.739 18.876-52.774 18.876-18.975 0-36.464-6.351-50.464-17.041-7.994-6.104-19.093-6.089-27.089.012-13.918 10.62-31.282 16.952-50.124 17.024l-.005.005C86.203 474.556 123.542 512 169.626 512c25.731 0 48.729-11.678 64-30.017 15.271 18.339 38.269 30.017 64 30.017 24.673 0 46.829-10.742 62.074-27.794a49.705 49.705 0 0 0 25.34 6.909c27.587 0 49.951-22.364 49.951-49.951 0-.422-.021-.838-.032-1.257a62.902 62.902 0 0 0 15.92 1.166c31.946-1.701 57.7-27.805 58.987-59.77 1-24.842-12.522-46.623-32.766-57.553C498.22 308.649 512 283.942 512 256z" opacity="1" data-original="#d9e7ec"></path><path fill="#C5D3DD" d="M370.981 426.76c-4.143 0-7.5-3.358-7.5-7.5s3.357-7.5 7.5-7.5c13.079 0 23.72-10.641 23.72-23.72 0-4.142 3.357-7.5 7.5-7.5s7.5 3.358 7.5 7.5c0 21.35-17.369 38.72-38.72 38.72z" opacity="1" data-original="#c5d3dd" class=""></path><g fill="#C5D3DD"><path d="M462.201 125.027c-.051 0-.101-.004-.152-.004-5.088 0-9.995.766-14.62 2.179a75.734 75.734 0 0 1-19.361 48.186 7.5 7.5 0 1 0 11.154 10.03 90.74 90.74 0 0 0 23.224-58.305 7.534 7.534 0 0 0-.245-2.086zM436.985 307.351a7.501 7.501 0 0 0 4.138 14.418 55.037 55.037 0 0 1 15.189-2.125 55.159 55.159 0 0 1 20.797 4.098 83.834 83.834 0 0 0 12.312-10.777c-10.112-5.443-21.557-8.321-33.108-8.321-6.566 0-13.069.911-19.328 2.707zM321.28 53.415a59.694 59.694 0 0 1 1.053 11.129c0 15.044-5.655 29.377-15.925 40.358a7.501 7.501 0 0 0 10.956 10.246c12.876-13.77 19.968-31.742 19.968-50.604a74.67 74.67 0 0 0-1.399-14.397 7.46 7.46 0 0 0-1.29-2.948 82.973 82.973 0 0 0-13.308 6.467c-.016-.085-.038-.167-.055-.251zM467.903 222.165c-4.143 0-7.5 3.358-7.5 7.5s3.357 7.5 7.5 7.5c13.919 0 27.014-4.892 37.418-13.862a83.114 83.114 0 0 0-7.382-13.606l.007-.008c-8.021 8.045-18.659 12.476-30.043 12.476zM89.598 123.839c0-3.976.31-7.965.922-11.858a82.676 82.676 0 0 0-15.652 4.857 91.905 91.905 0 0 0-.27 7.001c0 19.82 6.275 38.651 18.148 54.457a7.488 7.488 0 0 0 6.002 2.996 7.5 7.5 0 0 0 5.991-12.005c-9.905-13.188-15.141-28.903-15.141-45.448zM45.738 247.149c-11.148-11.291-18.345-25.467-20.859-41.027v.001a62.837 62.837 0 0 0-12.548 12.625c4.13 14.627 11.864 27.931 22.733 38.939a7.476 7.476 0 0 0 5.337 2.23c1.903 0 3.808-.72 5.269-2.163a7.498 7.498 0 0 0 .068-10.605z" fill="#C5D3DD" opacity="1" data-original="#c5d3dd" class=""></path></g><path fill="#C5D3DD" d="M162.577 132.555a7.5 7.5 0 0 1-7.5-7.5c0-21.35 17.37-38.719 38.72-38.719a7.5 7.5 0 0 1 0 15c-13.079 0-23.72 10.641-23.72 23.719a7.5 7.5 0 0 1-7.5 7.5zM278.329 304.33c-4.143 0-7.5-3.358-7.5-7.5s3.357-7.5 7.5-7.5c13.079 0 23.72-10.641 23.72-23.719 0-4.142 3.357-7.5 7.5-7.5s7.5 3.358 7.5 7.5c0 21.35-17.369 38.719-38.72 38.719zM393.255 145.269a7.5 7.5 0 0 1-7.5-7.5c0-9.514-7.74-17.253-17.254-17.253-4.143 0-7.5-3.358-7.5-7.5s3.357-7.5 7.5-7.5c17.785 0 32.254 14.469 32.254 32.253a7.5 7.5 0 0 1-7.5 7.5zM195.567 237.192a7.5 7.5 0 0 1-7.5-7.5c0-9.514-7.74-17.253-17.254-17.253a7.5 7.5 0 0 1 0-15c17.785 0 32.254 14.469 32.254 32.253a7.5 7.5 0 0 1-7.5 7.5zM202.94 454.979c-17.785 0-32.254-14.469-32.254-32.253a7.5 7.5 0 0 1 15 0c0 9.514 7.74 17.253 17.254 17.253a7.5 7.5 0 0 1 0 15zM93.121 327.634a7.474 7.474 0 0 1-5.303-2.197c-12.576-12.576-12.576-33.038 0-45.614a7.5 7.5 0 0 1 10.606 0 7.5 7.5 0 0 1 0 10.606c-6.727 6.728-6.727 17.673 0 24.401a7.5 7.5 0 0 1 0 10.606 7.469 7.469 0 0 1-5.303 2.198zM287.22 166.587a7.5 7.5 0 0 1-7.5-7.5c0-13.079-10.641-23.719-23.72-23.719s-23.72 10.641-23.72 23.719a7.5 7.5 0 0 1-15 0c0-21.35 17.37-38.719 38.72-38.719 21.351 0 38.72 17.369 38.72 38.719a7.5 7.5 0 0 1-7.5 7.5zM287.22 426.76c-21.351 0-38.72-17.37-38.72-38.72a7.5 7.5 0 0 1 15 0c0 13.079 10.641 23.72 23.72 23.72s23.72-10.641 23.72-23.72c0-4.142 3.357-7.5 7.5-7.5s7.5 3.358 7.5 7.5c-.001 21.35-17.37 38.72-38.72 38.72zM412.098 263.5a7.5 7.5 0 0 1-7.5-7.5c0-13.079-10.641-23.72-23.72-23.72-4.143 0-7.5-3.358-7.5-7.5s3.357-7.5 7.5-7.5c21.351 0 38.72 17.37 38.72 38.72a7.5 7.5 0 0 1-7.5 7.5zM183.19 346.869c-21.35 0-38.72-17.37-38.72-38.72a7.5 7.5 0 0 1 15 0c0 13.079 10.641 23.72 23.72 23.72a7.5 7.5 0 0 1 0 15z" opacity="1" data-original="#c5d3dd" class=""></path></g></svg>