<svg xmlns="http://www.w3.org/2000/svg" version="1.1" xmlns:xlink="http://www.w3.org/1999/xlink" width="512" height="512" x="0" y="0" viewBox="0 0 512 512.001" style="enable-background:new 0 0 512 512" xml:space="preserve" class=""><g><path fill="#5DC159" d="m466.68 417.344-113.344 30.41-72.457-193.57L243.305 39.23l.39-.105c62.598-16.797 127.29 21.57 144.496 85.695zm0 0" opacity="1" data-original="#5dc159" class=""></path><path fill="#3FAC4B" d="M391.422 123.953C375.598 64.977 318.555 28.07 259.609 35.91c46.68 6.219 87.317 39.719 100.282 88.043l81.37 300.211 23.259-6.242a5.588 5.588 0 0 0 3.945-6.84zm0 0" opacity="1" data-original="#3fac4b" class=""></path><path fill="#DC8839" d="m222.816 52.586-73.125 19.621-7.492-27.922c-2.656-9.894 3.211-20.062 13.102-22.719l37.308-10.007c9.891-2.657 20.063 3.21 22.715 13.105zM319.293 500.332l-29.785 7.992c-11.969 3.211-24.274-3.887-27.488-15.855l-6.48-24.164 73.124-19.621 6.484 24.16c3.211 11.972-3.886 24.277-15.855 27.488zm0 0" opacity="1" data-original="#dc8839"></path><path fill="#7DD177" d="m347.668 449.273-93.133 24.989c-9.52 2.558-19.308-3.09-21.863-12.614L132.282 87.496c-2.555-9.52 3.093-19.309 12.613-21.863l93.132-24.988zm0 0" opacity="1" data-original="#7dd177" class=""></path><path fill="#87D184" d="m243.762 39.105-24.657 6.618 109.708 408.613 24.593-6.602zm0 0" opacity="1" data-original="#87d184" class=""></path><path fill="#DC8839" d="M97.965 47.457H22.25V13.352C22.25 5.977 28.23 0 35.602 0h49.011c7.375 0 13.352 5.977 13.352 13.352zM22.25 464.547h75.715v34.101c0 7.375-5.977 13.352-13.352 13.352H35.602c-7.372 0-13.352-5.977-13.352-13.352zm0 0" opacity="1" data-original="#dc8839"></path><path fill="#AC5A28" d="M84.613 0H53.086c7.371 0 13.348 5.977 13.348 13.352v34.105h31.53V13.352C97.965 5.977 91.989 0 84.615 0zM66.434 464.547v34.101c0 7.375-5.977 13.352-13.348 13.352h31.527c7.375 0 13.352-5.977 13.352-13.352v-34.101zm0 0" opacity="1" data-original="#ac5a28"></path><path fill="#FFE999" d="M106.809 470.54H13.41c-7.406 0-13.41-6-13.41-13.407V60.863c0-7.406 6.004-13.406 13.41-13.406h93.399c7.402 0 13.406 6 13.406 13.406v396.27c0 7.406-6 13.406-13.406 13.406zm0 0" opacity="1" data-original="#ffe999" class=""></path><path fill="#FFBC19" d="M60.11 447.043a7.883 7.883 0 0 1-7.883-7.883v-8.05a7.88 7.88 0 0 1 7.882-7.883 7.883 7.883 0 0 1 7.883 7.882v8.051a7.885 7.885 0 0 1-7.883 7.883zm0-35.227a7.883 7.883 0 0 1-7.883-7.882v-8.051A7.88 7.88 0 0 1 60.109 388a7.883 7.883 0 0 1 7.883 7.883v8.05a7.885 7.885 0 0 1-7.883 7.883zm0-35.23a7.88 7.88 0 0 1-7.883-7.883v-8.05a7.883 7.883 0 0 1 15.765 0v8.05a7.883 7.883 0 0 1-7.883 7.883zm0-35.227a7.88 7.88 0 0 1-7.883-7.882v-8.051a7.883 7.883 0 0 1 15.765 0v8.05a7.883 7.883 0 0 1-7.883 7.883zm0-35.226a7.883 7.883 0 0 1-7.883-7.883v-8.05a7.88 7.88 0 0 1 7.882-7.884 7.883 7.883 0 0 1 7.883 7.883v8.051a7.883 7.883 0 0 1-7.883 7.883zm0-35.227a7.883 7.883 0 0 1-7.883-7.883v-8.05a7.88 7.88 0 0 1 7.882-7.883 7.883 7.883 0 0 1 7.883 7.883v8.05a7.885 7.885 0 0 1-7.883 7.883zm0-35.226a7.883 7.883 0 0 1-7.883-7.883v-8.055a7.883 7.883 0 0 1 15.765 0v8.055a7.885 7.885 0 0 1-7.883 7.883zm0-35.227a7.883 7.883 0 0 1-7.883-7.883v-8.054a7.883 7.883 0 0 1 15.765 0v8.054a7.885 7.885 0 0 1-7.883 7.883zm0-35.23a7.88 7.88 0 0 1-7.883-7.883v-8.05a7.883 7.883 0 0 1 15.765 0v8.05a7.883 7.883 0 0 1-7.883 7.883zm0-35.227a7.88 7.88 0 0 1-7.883-7.883v-8.05a7.88 7.88 0 0 1 7.882-7.883 7.883 7.883 0 0 1 7.883 7.883v8.05a7.883 7.883 0 0 1-7.883 7.883zm0-35.226a7.883 7.883 0 0 1-7.883-7.883v-8.051a7.88 7.88 0 0 1 7.882-7.883 7.883 7.883 0 0 1 7.883 7.883v8.05a7.883 7.883 0 0 1-7.883 7.884zm0 0" opacity="1" data-original="#ffbc19" class=""></path></g></svg>