<svg xmlns="http://www.w3.org/2000/svg" version="1.1" xmlns:xlink="http://www.w3.org/1999/xlink" width="512" height="512" x="0" y="0" viewBox="0 0 512 512" style="enable-background:new 0 0 512 512" xml:space="preserve" class=""><g><g fill="#97756E"><path d="m442.535 277.677 65.139-65.139c5.768-5.768 5.768-15.118 0-20.886l-21.93-21.93c-5.767-5.768-15.118-5.768-20.886 0l-20.531 20.531c-4.652 4.652-12.606 1.357-12.606-5.221v-84.84h-1.03c0 23.251-29.671 43.962-75.62 57.15v238.814c0 10.985 3.36 21.527 9.717 30.488l20.384 28.73h67.673c17.124 0 27.773-18.598 19.105-33.366l-30.068-51.227a73.85 73.85 0 0 1-10.16-37.379v-29.618a36.916 36.916 0 0 1 10.813-26.107zM110.243 426.645c6.357-8.961 9.717-19.503 9.717-30.488V157.342c-45.948-13.188-75.62-33.898-75.62-57.15h-1.03v233.21a73.837 73.837 0 0 1-10.16 37.379L3.081 422.009c-8.668 14.768 1.981 33.366 19.105 33.366h67.673z" fill="#97756E" opacity="1" data-original="#97756e" class=""></path></g><path fill="#82635E" d="m442.535 277.677 65.139-65.139c5.768-5.768 5.768-15.118 0-20.886l-21.93-21.93c-5.767-5.768-15.118-5.768-20.886 0L454.44 180.14l11.512 11.511c5.768 5.768 5.768 15.118 0 20.886l-65.139 65.139a36.867 36.867 0 0 0-4.824 5.961c3.551.592 6.261 3.67 6.261 7.389v66.313a43.954 43.954 0 0 0 8.149 25.569 7.488 7.488 0 0 1 .929 6.9l35.06 65.565h6.456c17.124 0 27.773-18.598 19.105-33.366l-30.068-51.227a73.85 73.85 0 0 1-10.16-37.379v-29.618a36.92 36.92 0 0 1 10.814-26.106zM365.604 426.065a51.692 51.692 0 0 1-9.532-29.909V157.085c-32.753 9.527-73.908 15.211-118.556 15.211s-85.803-5.684-118.556-15.211v239.071a51.688 51.688 0 0 1-9.532 29.909l-25.209 35.533c-6.938 9.779.054 23.314 12.045 23.314h282.505c11.991 0 18.983-13.535 12.045-23.314z" opacity="1" data-original="#82635e"></path><path fill="#6D524E" d="M365.604 426.065a51.692 51.692 0 0 1-9.532-29.909V157.085c-10.913 3.174-22.756 5.922-35.353 8.175v230.896a51.688 51.688 0 0 0 9.532 29.909L372 484.912h6.768c11.991 0 18.983-13.535 12.045-23.314z" opacity="1" data-original="#6d524e" class=""></path><ellipse cx="237.515" cy="100.192" fill="#FED2A4" rx="194.206" ry="73.104" opacity="1" data-original="#fed2a4" class=""></ellipse><path fill="#FFBD86" d="M348.747 40.264c20.182 11.528 31.939 25.332 31.939 40.171 0 4.005-.869 7.932-2.514 11.762 1.153 2.559 1.739 5.224 1.739 7.995 0 11.244-9.684 20.852-28.783 28.556a7.502 7.502 0 0 1-9.761-4.149c-.007-.018-.011-.036-.018-.053-35.461 17.614-91.631 28.994-154.869 28.994-41.377 0-79.725-4.875-111.231-13.177 34.73 19.838 94.431 32.934 162.267 32.934 107.257 0 194.206-32.73 194.206-73.104-.001-24.8-32.811-46.711-82.975-59.929z" opacity="1" data-original="#ffbd86" class=""></path><path fill="#F6A96C" d="M237.515 145.559c-36.697 0-71.292-4.038-97.412-11.37-29.849-8.379-44.983-19.816-44.983-33.996s15.134-25.618 44.983-33.996c26.119-7.332 60.714-11.37 97.412-11.37s71.293 4.038 97.413 11.37c29.849 8.378 44.983 19.816 44.983 33.996 0 11.244-9.684 20.852-28.783 28.556a7.5 7.5 0 0 1-5.611-13.91c14.315-5.775 19.394-11.499 19.394-14.646 0-4.816-10.651-12.99-34.037-19.555-24.837-6.972-57.993-10.812-93.358-10.812s-68.521 3.84-93.358 10.812c-23.385 6.564-34.037 14.738-34.037 19.555s10.651 12.989 34.037 19.555c24.838 6.972 57.993 10.812 93.358 10.812a7.5 7.5 0 1 1-.001 14.999z" opacity="1" data-original="#f6a96c" class=""></path><g fill="#AE847F"><path d="M297.49 303.022a7.5 7.5 0 0 0 7.5-7.5v-25.846c0-4.143-3.358-7.5-7.5-7.5s-7.5 3.357-7.5 7.5v25.846a7.5 7.5 0 0 0 7.5 7.5zM304.99 410.009v-66.313c0-4.143-3.358-7.5-7.5-7.5s-7.5 3.357-7.5 7.5v66.313c0 12.34 3.774 24.184 10.915 34.249a7.49 7.49 0 0 0 6.124 3.162 7.5 7.5 0 0 0 6.111-11.84 43.958 43.958 0 0 1-8.15-25.571zM394.75 238.993a7.5 7.5 0 0 0 7.5-7.5v-25.845c0-4.143-3.358-7.5-7.5-7.5s-7.5 3.357-7.5 7.5v25.845c0 4.143 3.357 7.5 7.5 7.5zM410.399 382.91a43.949 43.949 0 0 1-8.149-25.569v-66.313c0-4.143-3.358-7.5-7.5-7.5s-7.5 3.357-7.5 7.5v66.313c0 12.34 3.774 24.183 10.915 34.249a7.488 7.488 0 0 0 6.124 3.161 7.501 7.501 0 0 0 6.11-11.841zM177.541 361.302a7.5 7.5 0 0 0-7.5 7.5v41.207a43.955 43.955 0 0 1-8.149 25.57 7.5 7.5 0 0 0 1.778 10.457 7.496 7.496 0 0 0 10.457-1.777c7.141-10.066 10.915-21.909 10.915-34.25v-41.207a7.501 7.501 0 0 0-7.501-7.5zM234.638 361.302a7.5 7.5 0 0 0-7.5 7.5v41.207c0 4.143 3.358 7.5 7.5 7.5s7.5-3.357 7.5-7.5v-41.207a7.5 7.5 0 0 0-7.5-7.5zM177.541 255.196a7.5 7.5 0 0 0-7.5 7.5v47.998c0 4.143 3.358 7.5 7.5 7.5s7.5-3.357 7.5-7.5v-47.998a7.5 7.5 0 0 0-7.5-7.5zM177.541 201.111a7.5 7.5 0 0 0-7.5 7.5v10.302c0 4.143 3.358 7.5 7.5 7.5s7.5-3.357 7.5-7.5v-10.302a7.5 7.5 0 0 0-7.5-7.5zM80.281 308.703a7.5 7.5 0 0 0-7.5 7.5v41.206a43.955 43.955 0 0 1-8.149 25.57 7.5 7.5 0 0 0 1.778 10.457 7.496 7.496 0 0 0 10.457-1.777c7.141-10.066 10.915-21.909 10.915-34.25v-41.206a7.502 7.502 0 0 0-7.501-7.5zM80.281 197.219a7.5 7.5 0 0 0-7.5 7.5v47.997c0 4.143 3.358 7.5 7.5 7.5s7.5-3.357 7.5-7.5v-47.997a7.5 7.5 0 0 0-7.5-7.5zM297.49 235.983a7.5 7.5 0 0 0 7.5-7.5v-10.302c0-4.143-3.358-7.5-7.5-7.5s-7.5 3.357-7.5 7.5v10.302a7.5 7.5 0 0 0 7.5 7.5zM234.638 268.331a7.5 7.5 0 0 0-7.5 7.5v48.162c0 4.143 3.358 7.5 7.5 7.5s7.5-3.357 7.5-7.5v-48.162a7.5 7.5 0 0 0-7.5-7.5z" fill="#AE847F" opacity="1" data-original="#ae847f"></path></g><path fill="#F6A96C" d="M237.515 115.154c-35.651 0-56.884-6.272-64.235-11.644a7.5 7.5 0 0 1 8.851-12.111c5.808 4.244 27.192 8.755 55.384 8.755 28.33 0 49.277-4.384 55.328-8.714a7.5 7.5 0 0 1 8.73 12.199c-11.865 8.49-40.869 11.515-64.058 11.515z" opacity="1" data-original="#f6a96c" class=""></path></g></svg>