<svg xmlns="http://www.w3.org/2000/svg" version="1.1" xmlns:xlink="http://www.w3.org/1999/xlink" width="512" height="512" x="0" y="0" viewBox="0 0 512 512" style="enable-background:new 0 0 512 512" xml:space="preserve"><g><path fill="#804B40" d="M280.45 152c-74.443 0-135-60.557-135-135V0h30v17c0 57.891 47.109 105 105 105s105-47.109 105-105V0h30v17c0 74.443-60.557 135-135 135z" opacity="1" data-original="#804b40"></path><path fill="#663C33" d="M415.45 17V0h-30v17c0 57.891-47.109 105-105 105v30c74.443 0 135-60.557 135-135z" opacity="1" data-original="#663c33"></path><path fill="#FFDF80" d="M280.45 212c-24.814 0-45-20.186-45-45s20.186-45 45-45 45 20.186 45 45-20.185 45-45 45zm0-60c-8.262 0-15 6.724-15 15s6.738 15 15 15 15-6.724 15-15-6.738-15-15-15z" opacity="1" data-original="#ffdf80"></path><path fill="#FFBF40" d="M295.45 167c0 8.276-6.738 15-15 15v30c24.814 0 45-20.186 45-45s-20.186-45-45-45v30c8.262 0 15 6.724 15 15z" opacity="1" data-original="#ffbf40"></path><path fill="#FFDF80" d="M325.45 272h-90c-16.569 0-30-13.431-30-30v-15c0-24.853 20.147-45 45-45h60c24.853 0 45 20.147 45 45v15c0 16.569-13.431 30-30 30z" opacity="1" data-original="#ffdf80"></path><path fill="#FFBF40" d="M310.45 182h-30v90h45c16.569 0 30-13.433 30-30v-15c0-24.853-20.147-45-45-45z" opacity="1" data-original="#ffbf40"></path><path fill="#F9F4F3" d="M355.45 242h-150v150l30 15-32.701 15c-6.299 26.7-23.699 49.2-48.898 61.5L96.55 512h123.9c21.599 0 42.001-5.101 60-14.101 40.499-20.4 69.6-60.3 74.399-107.1.3-4.499.601-9 .601-13.799v-15l-39.3-15 39.3-15z" opacity="1" data-original="#f9f4f3"></path><path fill="#F0E0D8" d="M355.45 332v30h-69.3l-19.2-38.401 27-13.2L304.75 332zM265.45 392v30h-62.701c1.8-7.2 2.701-14.7 2.701-22.2V392z" opacity="1" data-original="#f0e0d8"></path><path fill="#F0E0D8" d="m355.45 332-39.3 15 39.3 15v15c0 4.799-.3 9.3-.601 13.799-4.799 46.8-33.9 86.7-74.399 107.1V242h75z" opacity="1" data-original="#f0e0d8"></path><path fill="#D9C9B8" d="m293.95 310.399-13.5 6.599V350.6l5.7 11.4h69.3v-30h-50.7z" opacity="1" data-original="#d9c9b8"></path></g></svg>