<svg xmlns="http://www.w3.org/2000/svg" version="1.1" xmlns:xlink="http://www.w3.org/1999/xlink" width="512" height="512" x="0" y="0" viewBox="0 0 464 464" style="enable-background:new 0 0 512 512" xml:space="preserve"><g><path fill="#6E6F80" d="M335.71 52.03 232 0 128.29 52.03 78.42 167.69v128.63l49.88 115.66L232 464l103.7-52.02 49.88-115.66V167.69z" opacity="1" data-original="#6e6f80"></path><path fill="#838599" d="M266.68 172.513c.456 49.545-28.421 93.009-73.281 112.597L160.75 232 232 116.1zM170.09 77.84l-48.67 123.43-43-33.59C128.021 52.654 128.197 52.123 128.3 52.02z" opacity="1" data-original="#838599"></path><path fill="#42434D" d="M335.7 411.98 232 464V347.9z" opacity="1" data-original="#42434d"></path><path fill="#585966" d="M232 347.9V464l-103.7-52.02zM385.58 296.32 335.7 411.98 232 347.9 303.25 232z" opacity="1" data-original="#585966"></path><path fill="#42434D" d="M160.75 232 232 347.9l-103.7 64.08-49.88-115.66z" opacity="1" data-original="#42434d"></path><path fill="#585966" d="m159.09 392.95-30.79 19.03-49.88-115.66 43-33.59c0 .716-1.794-5.719 37.67 130.22z" opacity="1" data-original="#585966"></path><path fill="#42434D" d="M385.58 167.69v128.63L303.25 232c83.288-65.068 82.33-64.41 82.33-64.31z" opacity="1" data-original="#42434d"></path><path fill="#585966" d="m160.75 232-82.33 64.32V167.68z" opacity="1" data-original="#585966"></path><path fill="#6E6F80" d="M121.42 201.27v61.46l-43 33.59V167.68z" opacity="1" data-original="#6e6f80"></path><path fill="#585966" d="M385.58 167.68 303.25 232 232 116.1l103.7-64.08z" opacity="1" data-original="#585966"></path><path fill="#42434D" d="M335.7 52.02 232 116.1V0z" opacity="1" data-original="#42434d"></path><path fill="#585966" d="M232 0v116.1L128.3 52.02z" opacity="1" data-original="#585966"></path><path fill="#6E6F80" d="M232 0v45.09l-61.91 32.75-41.79-25.82z" opacity="1" data-original="#6e6f80"></path></g></svg>