<svg xmlns="http://www.w3.org/2000/svg" version="1.1" xmlns:xlink="http://www.w3.org/1999/xlink" width="512" height="512" x="0" y="0" viewBox="0 0 512 512" style="enable-background:new 0 0 512 512" xml:space="preserve"><g><path fill="#FBAC5B" d="M137.914 274.383c-4.146 0-8.354-.566-12.534-1.753-7.968-2.264-12.589-10.549-10.322-18.506s10.569-12.57 18.532-10.308c8.415 2.39 17.2-2.498 19.593-10.896 2.393-8.399-2.502-17.175-10.912-19.565-29.498-8.274-56.167-28.74-75.046-57.615-18.985-29.038-29.02-64.042-29.02-101.227v-.116c.052-14.62 5.781-28.295 16.132-38.559C64.641 5.62 78.299 0 92.812 0l.198.001c30.114.107 54.527 24.658 54.421 54.728-.029 8.254-6.74 14.926-14.999 14.926h-.054c-8.284-.029-14.976-6.759-14.947-15.031.048-13.553-10.955-24.618-24.527-24.666-6.591-.044-12.764 2.511-17.429 7.137s-7.247 10.789-7.271 17.354v.064c0 30.906 8.573 61.04 24.141 84.85 14.906 22.799 35.535 38.839 58.087 45.165 24.37 6.925 38.525 32.305 31.605 56.591-5.73 20.112-24.15 33.262-44.123 33.264z" opacity="1" data-original="#fbac5b"></path><path fill="#FD8F32" d="M374.086 274.383c-19.977.002-38.392-13.15-44.124-33.265-6.921-24.285 7.235-49.666 31.556-56.577 22.601-6.34 43.23-22.379 58.136-45.178 15.568-23.811 24.141-53.945 24.141-84.85v-.116c-.023-6.512-2.605-12.675-7.271-17.302-4.644-4.605-10.799-7.137-17.34-7.137h-.089c-13.572.048-24.574 11.113-24.526 24.666.029 8.272-6.663 15.002-14.947 15.031h-.054c-8.26 0-14.97-6.671-14.999-14.926-.106-30.07 24.307-54.621 54.42-54.728l.198-.001c14.515 0 28.171 5.62 38.476 15.838 10.352 10.264 16.08 23.939 16.132 38.506v.169c0 37.185-10.035 72.189-29.021 101.227-18.878 28.875-45.547 49.341-75.095 57.629-8.361 2.376-13.256 11.153-10.863 19.551 2.394 8.398 11.182 13.286 19.593 10.897 7.963-2.264 16.265 2.35 18.532 10.308 2.267 7.957-2.354 16.242-10.322 18.506a45.838 45.838 0 0 1-12.533 1.752z" opacity="1" data-original="#fd8f32"></path><path fill="#FDDB8D" d="M331.754 422.663H180.246c-8.284 0-15-6.706-15-14.979 0-32.803 17.664-62.704 45.754-78.709V266.34c-6.485-2.755-12.7-6.1-18.566-9.995-32.082-21.303-51.234-56.989-51.234-95.46V14.979C141.2 6.707 147.916 0 156.2 0h199.602c8.284 0 15 6.706 15 14.979v145.906c0 38.472-19.153 74.158-51.234 95.46a114.571 114.571 0 0 1-18.566 9.995v62.635c28.09 16.005 45.754 45.906 45.754 78.709-.002 8.273-6.717 14.979-15.002 14.979z" opacity="1" data-original="#fddb8d"></path><path fill="#FBAC5B" d="M319.566 256.345c32.081-21.302 51.234-56.988 51.234-95.46V14.979C370.8 6.707 364.084 0 355.8 0H256v422.662h75.754c8.284 0 15-6.706 15-14.979 0-32.803-17.664-62.704-45.754-78.709V266.34c6.485-2.755 12.7-6.1 18.566-9.995z" opacity="1" data-original="#fbac5b"></path><path fill="#FBAC5B" d="M296 311.372h-80c-8.284 0-15-6.706-15-14.979s6.716-14.979 15-14.979h80c8.284 0 15 6.706 15 14.979s-6.716 14.979-15 14.979z" opacity="1" data-original="#fbac5b"></path><path fill="#FD8F32" d="M296 281.414h-40v29.957h40c8.284 0 15-6.706 15-14.979s-6.716-14.978-15-14.978z" opacity="1" data-original="#fd8f32"></path><path fill="#FBAC5B" d="M256 200.347c-8.284 0-15-6.706-15-14.979v-78.54h-5.017c-8.284 0-15-6.706-15-14.979s6.716-14.979 15-14.979H256c8.284 0 15 6.706 15 14.979v93.519c0 8.273-6.716 14.979-15 14.979z" opacity="1" data-original="#fbac5b"></path><path fill="#FD8F32" d="M256 76.871v123.476c8.284 0 15-6.706 15-14.979V91.85c0-8.273-6.716-14.979-15-14.979z" opacity="1" data-original="#fd8f32"></path><path fill="#BA602B" d="M395.631 512H116.369c-8.284 0-15-6.706-15-14.979v-89.337c0-8.272 6.716-14.979 15-14.979h279.263c8.284 0 15 6.706 15 14.979v89.337c-.001 8.273-6.717 14.979-15.001 14.979z" opacity="1" data-original="#ba602b"></path><path fill="#964C22" d="M395.631 392.706H256V512h139.631c8.284 0 15-6.706 15-14.979v-89.337c0-8.272-6.716-14.978-15-14.978z" opacity="1" data-original="#964c22"></path><path fill="#964C22" d="M415.631 512H96.369c-8.284 0-15-6.706-15-14.979s6.716-14.979 15-14.979h319.263c8.284 0 15 6.706 15 14.979S423.915 512 415.631 512z" opacity="1" data-original="#964c22"></path><path fill="#6F3716" d="M415.631 482.043H256V512h159.631c8.284 0 15-6.706 15-14.979s-6.716-14.978-15-14.978z" opacity="1" data-original="#6f3716"></path></g></svg>