<svg xmlns="http://www.w3.org/2000/svg" role="img" viewBox="0 0 512 183.67"><style>svg {enable-background:new 0 0 512 512}</style><path fill="#FF9A9F" d="M247.742 68.059c-.87 0-1.758-.141-2.613-.426-3.774-1.258-37.25-12.66-49.945-25.356-9.653-9.656-9.653-25.375 0-35.03 9.656-9.653 25.37-9.669 35.043 0 12.691 12.69 24.085 46.163 25.343 49.94a8.255 8.255 0 0 1-7.828 10.872zm-40.879-37.457c4.774 4.773 15.871 10.382 26.621 14.933-4.304-10.238-9.879-21.55-14.933-26.613-3.227-3.227-8.461-3.211-11.688 0-3.218 3.219-3.218 8.46 0 11.68zm0 0" data-original="#ff9a9f"/><path fill="#FF8086" d="M247.742 68.059a8.248 8.248 0 0 1-5.84-2.422 8.249 8.249 0 0 1-1.992-8.45c1.258-3.777 12.653-37.25 25.348-49.94 9.668-9.669 25.387-9.653 35.039 0 9.652 9.655 9.652 25.374 0 35.03-12.692 12.696-46.168 24.098-49.942 25.356a8.282 8.282 0 0 1-2.613.426zm35.04-51.551a8.248 8.248 0 0 0-5.848 2.414c-4.766 4.77-10.38 15.867-14.934 26.617 10.242-4.309 21.555-9.879 26.621-14.937 3.219-3.22 3.219-8.461 0-11.68a8.26 8.26 0 0 0-5.84-2.414zM294.46 36.44h.078zm0 0" data-original="#ff8086"/><path fill="#F4DBB3" d="M256 59.797c-81.113 0-154.266-8.707-207.074-22.676-8.719-2.305-18.246-.922-25.14 4.895C9.733 53.87 0 79.563 0 109.348c0 29.78 9.734 55.476 23.785 67.332 6.895 5.816 16.422 7.199 25.14 4.894 52.81-13.972 125.962-22.68 207.075-22.68 85.102 0 161.434 9.586 214.71 24.774V35.023C417.435 50.215 341.099 59.797 256 59.797zm0 0" data-original="#f4dbb3"/><path fill="#EAC89F" d="M261.07 142.379c-96.16 0-183.398 7.91-248.297 20.715 3.207 5.492 6.957 10.164 11.016 13.586 6.89 5.816 16.422 7.199 25.137 4.894 52.808-13.972 125.96-22.68 207.074-22.68 85.102 0 161.434 9.586 214.71 24.774v-27.219c-59.179-8.84-131.413-14.07-209.64-14.07zm0 0" data-original="#eac89f"/><path fill="#FF8086" d="M231.227 109.348c0-27.368 14.933-49.598 33.175-49.598l-33.175-.242c-18.243 0-33.032 22.472-33.032 49.84 0 27.363 15.055 49.816 33.297 49.816l32.809-.242c-18.242 0-33.074-22.211-33.074-49.574zm0 0" data-original="#ff8086"/><path fill="#E5646E" d="M231.227 158.895l33.074.027c-18.242 0-33.074-22.211-33.074-49.574h-33.032c0 27.363 14.785 49.547 33.032 49.547zm0 0" data-original="#e5646e"/><path fill="#D2AF8C" d="M512 109.348c0-41.047-18.484-74.325-41.29-74.325-22.804 0-41.288 33.278-41.288 74.325s18.484 74.32 41.289 74.32S512 150.395 512 109.348zm0 0" data-original="#d2af8c"/><path fill="#FF9A9F" d="M239.484 109.348c0 13.68-11.093 24.773-24.773 24.773-13.684 0-24.774-11.094-24.774-24.773 0-13.684 11.09-24.774 24.774-24.774 13.68 0 24.773 11.09 24.773 24.774zm0 0" data-original="#ff9a9f"/><path fill="#EAC89F" d="M440.89 129.992c0-18.527 5.215-34.863 13.145-44.512 3.024-3.675.723-9.164-4.039-9.164h-16.285c-2.758 9.961-4.29 21.149-4.29 33.032 0 41.047 18.485 74.32 41.29 74.32-16.473 0-29.82-24.031-29.82-53.676zm0 0" data-original="#eac89f"/><path fill="#EAC89F" d="M470.71 35.023c-11.66 0-22.19 8.707-29.698 22.696 4.527-3.074 9.433-4.801 14.558-4.801 22.805 0 41.29 33.273 41.29 74.32 0 20.063-4.38 38.282-11.555 51.653C500.925 168.289 512 141.168 512 109.348c0-41.047-18.484-74.325-41.29-74.325zm0 0" data-original="#eac89f"/><path fill="#FF8086" d="M222.969 125.863c-13.684 0-24.774-11.093-24.774-24.773 0-4.719 1.39-9.086 3.68-12.836-7.133 4.348-11.938 12.129-11.938 21.094 0 13.68 11.09 24.773 24.774 24.773 8.965 0 16.742-4.805 21.094-11.937-3.754 2.289-8.118 3.68-12.836 3.68zm0 0" data-original="#ff8086"/><path fill="#DB4655" d="M239.71 142.504c-11.007.137-21.878.379-32.593.715 6.024 9.629 14.88 15.945 24.375 15.945l32.809-.242c-9.727 0-18.543-6.387-24.59-16.418zm0 0" data-original="#db4655"/></svg>