<svg xmlns="http://www.w3.org/2000/svg" version="1.1" xmlns:xlink="http://www.w3.org/1999/xlink" width="512" height="512" x="0" y="0" viewBox="0 0 512 512" style="enable-background:new 0 0 512 512" xml:space="preserve"><g><path fill="#F6E266" d="m114.002 290.133 19.817 39.634a55.16 55.16 0 0 1-49.339 79.832h-9.222a55.162 55.162 0 0 1-49.339-79.832l19.817-39.634 34.133-17.067z" opacity="1" data-original="#f6e266"></path><path fill="#FFC250" d="m133.819 329.767-19.817-39.634-31.526-15.763 27.649 55.397a55.163 55.163 0 0 1-3.441 55.269 55.157 55.157 0 0 1-38.662 24.077c2.383.315 4.798.487 7.236.487h9.222a55.162 55.162 0 0 0 49.339-79.833z" opacity="1" data-original="#ffc250"></path><path fill="#A06A5A" d="M298.353 51.2h-81.951c-65.874 0-119.467 53.593-119.467 119.467v90.485H62.802v-90.485c0-84.696 68.905-153.6 153.6-153.6h81.951z" opacity="1" data-original="#a06a5a"></path><path fill="#845252" d="M251.341 17.067V51.2h15.453V17.067zM96.935 214.14H62.802v15.453h34.133z" opacity="1" data-original="#845252"></path><path fill="#F6E266" d="m361.468 41.86-4.529-7.726 4.529-7.726V8.241A8.241 8.241 0 0 0 353.227 0h-51.784a8.242 8.242 0 0 0-8.242 8.241v89.801h68.267z" opacity="1" data-original="#f6e266"></path><path fill="#FFC250" d="m361.468 41.86-4.529-7.726 4.529-7.726V8.241A8.241 8.241 0 0 0 353.227 0h-23.694a8.24 8.24 0 0 1 8.241 8.241v89.801h23.694z" opacity="1" data-original="#ffc250"></path><path fill="#FFC250" d="M370.535 85.333h-9.043l-3.244 2.474-8.477-2.474h-65.636a8 8 0 0 0-8 8v36.919h102.4V93.333a8 8 0 0 0-8-8z" opacity="1" data-original="#ffc250"></path><path fill="#E3A93F" d="M370.293 85.334h-23.694a8.24 8.24 0 0 1 8.241 8.241v36.677h23.694V93.575a8.24 8.24 0 0 0-8.241-8.241z" opacity="1" data-original="#e3a93f"></path><path fill="#A06A5A" d="M361.468 26.407h-17.067a7.726 7.726 0 1 0 0 15.452h17.066V26.407z" opacity="1" data-original="#a06a5a"></path><path fill="#E2D8EC" d="m429.735 153.6 5.894 23.577a34.134 34.134 0 0 0 10.9 17.637l21.536 18.459a68.266 68.266 0 0 1 22.67 64.413l-38.713 206.471C448.995 500.301 434.899 512 418.473 512H236.196c-16.426 0-30.522-11.699-33.549-27.843l-38.713-206.471a68.267 68.267 0 0 1 22.67-64.413l21.536-18.459a34.131 34.131 0 0 0 10.9-17.637l5.894-23.577 102.4-17.067z" opacity="1" data-original="#e2d8ec"></path><path fill="#D5C6E4" d="m468.065 213.274-21.536-18.459a34.131 34.131 0 0 1-10.9-17.637l-5.894-23.577-24.722-4.12 6.922 27.698a34.129 34.129 0 0 0 10.901 17.637l21.536 18.459a68.267 68.267 0 0 1 22.67 64.413l-38.713 206.471C425.301 500.301 411.205 512 394.779 512h23.694c16.426 0 30.522-11.699 33.549-27.843l38.713-206.471a68.265 68.265 0 0 0-22.67-64.412z" opacity="1" data-original="#d5c6e4"></path><path fill="#F9F6F9" d="M114.002 290.133H45.735V264a8 8 0 0 1 8-8h52.267a8 8 0 0 1 8 8z" opacity="1" data-original="#f9f6f9"></path><path fill="#B078FF" d="M443.391 290.133h-98.99l-17.067 6.327-17.067-6.327h-98.99c-5.343 0-9.372 4.854-8.387 10.106l30.695 163.706a17.067 17.067 0 0 0 16.774 13.922h153.949a17.067 17.067 0 0 0 16.775-13.921l30.695-163.706c.985-5.252-3.044-10.107-8.387-10.107z" opacity="1" data-original="#b078ff"></path><path fill="#F9F6F9" d="m327.335 296.461 17.067-6.328V143.862h-34.134v146.272z" opacity="1" data-original="#f9f6f9"></path><path fill="#9057EA" d="M443.391 290.133h-23.694c5.343 0 9.372 4.854 8.387 10.106l-30.695 163.706a17.067 17.067 0 0 1-16.774 13.921h23.694a17.065 17.065 0 0 0 16.774-13.921l30.695-163.706c.985-5.251-3.044-10.106-8.387-10.106z" opacity="1" data-original="#9057ea"></path><path fill="#D792FF" d="M310.268 290.133v94.159a8.241 8.241 0 0 0 8.242 8.241h17.651a8.241 8.241 0 0 0 8.241-8.241v-94.159z" opacity="1" data-original="#d792ff"></path><path fill="#F9F6F9" d="M224.935 119.467c-9.426 0-17.067 7.641-17.067 17.067s7.641 17.067 17.067 17.067h204.8c9.426 0 17.067-7.641 17.067-17.067s-7.641-17.067-17.067-17.067z" opacity="1" data-original="#f9f6f9"></path><g fill="#E2D8EC"><path d="M429.735 119.467h-23.694c9.426 0 17.067 7.641 17.067 17.067s-7.641 17.067-17.067 17.067h23.694c9.426 0 17.067-7.641 17.067-17.067-.001-9.426-7.642-17.067-17.067-17.067zM105.76 256H82.066a8.242 8.242 0 0 1 8.242 8.242v25.892h23.694v-25.892A8.243 8.243 0 0 0 105.76 256z" fill="#E2D8EC" opacity="1" data-original="#e2d8ec"></path></g></g></svg>