<svg xmlns="http://www.w3.org/2000/svg" version="1.1" xmlns:xlink="http://www.w3.org/1999/xlink" width="512" height="512" x="0" y="0" viewBox="0 0 58 58" style="enable-background:new 0 0 512 512" xml:space="preserve"><g><g fill="none" fill-rule="nonzero"><path fill="#F8E9AF" d="M10.07 40.21.73 20.56a5 5 0 0 1 6.57-7.03 4.994 4.994 0 0 1 7.98-5.88 5 5 0 0 1 8.78-3.35 4.988 4.988 0 0 1 9.88 0 5 5 0 0 1 8.78 3.35 4.994 4.994 0 0 1 7.98 5.88 5 5 0 0 1 6.57 7.03l-9.34 19.65z" opacity="1" data-original="#f8e9af"></path><g fill="#F9C076"><path d="M18.336 32.812a1 1 0 0 1-.872-.51L9.129 17.49a1 1 0 1 1 1.742-.98l8.335 14.811a1 1 0 0 1-.87 1.491zM22.656 26.729a1 1 0 0 1-.925-.619l-5.656-13.729a1 1 0 1 1 1.85-.762l5.656 13.73a1 1 0 0 1-.925 1.38zM27.6 23.887a1 1 0 0 1-.981-.816L24.018 9.185a1 1 0 1 1 1.964-.37L28.588 22.7a1 1 0 0 1-.8 1.167.985.985 0 0 1-.188.02zM40.091 32.052a1 1 0 0 1-.87-1.49l7.908-14.052a1 1 0 1 1 1.742.98l-7.908 14.052a1 1 0 0 1-.872.51zM36.048 25.02a1 1 0 0 1-.925-1.381l4.952-12.02a1 1 0 1 1 1.85.762L36.973 24.4a1 1 0 0 1-.925.62zM30.543 23.1a1 1 0 0 1-.983-1.185l2.458-13.1a1 1 0 0 1 1.964.37l-2.458 13.1a1 1 0 0 1-.981.815z" fill="#F9C076" opacity="1" data-original="#f9c076"></path></g><path fill="#F4EEC9" d="M58 44a12.525 12.525 0 0 1-9.564 12.2C44.143 57.232 37.942 58 29 58s-15.143-.768-19.436-1.8A12.525 12.525 0 0 1 0 44z" opacity="1" data-original="#f4eec9"></path><path fill="#F9C076" d="M40.32 39.39C50.71 40.16 58 41.93 58 44c0 2.76-12.98 5-29 5S0 46.76 0 44c0-2.07 7.29-3.84 17.68-4.61z" opacity="1" data-original="#f9c076"></path><path fill="#D0D3D0" d="M42 33a13.008 13.008 0 0 1-7.63 11.84H23.63A13.007 13.007 0 1 1 42 33z" opacity="1" data-original="#d0d3d0"></path><path fill="#EBEFF0" d="M41 29.5c-.14 6.488-5.512 11.636-12 11.5-6.488.136-11.86-5.012-12-11.5a10.6 10.6 0 0 1 .16-1.88 13.009 13.009 0 0 1 23.68 0c.11.62.163 1.25.16 1.88z" opacity="1" data-original="#ebeff0"></path><circle cx="32" cy="28" r="3" fill="#FFFFFF" opacity="1" data-original="#ffffff"></circle><circle cx="35" cy="36" r="2" fill="#FFFFFF" opacity="1" data-original="#ffffff"></circle><path fill="#F8E9AF" d="M29 55c-3.26 0-6.313-.1-9.075-.313a1 1 0 0 1 .15-1.995C22.788 52.9 25.79 53 29 53s6.212-.1 8.925-.308a1 1 0 0 1 .15 1.995C35.312 54.9 32.26 55 29 55z" opacity="1" data-original="#f8e9af"></path><path fill="#F08C46" d="M29 46c-4.31.05-8.615-.291-12.863-1.019a1 1 0 0 1 .386-1.962c4.12.703 8.297 1.03 12.477.981 4.18.05 8.356-.278 12.477-.981a1 1 0 0 1 .386 1.962A71.315 71.315 0 0 1 29 46z" opacity="1" data-original="#f08c46"></path></g></g></svg>