<svg xmlns="http://www.w3.org/2000/svg" version="1.1" xmlns:xlink="http://www.w3.org/1999/xlink" width="512" height="512" x="0" y="0" viewBox="0 0 512 512" style="enable-background:new 0 0 512 512" xml:space="preserve"><g><circle cx="256" cy="210.503" r="210.503" style="" fill="#B8E6FF" data-original="#b8e6ff"></circle><circle cx="256" cy="210.503" r="96.725" style="" fill="#D4F0FC" data-original="#d4f0fc"></circle><path d="M256 317.589c-59.046 0-107.084-48.038-107.084-107.084S196.954 103.421 256 103.421s107.084 48.038 107.084 107.084c-.001 59.047-48.04 107.084-107.084 107.084zm0-193.456c-47.625 0-86.372 38.747-86.372 86.372s38.747 86.372 86.372 86.372 86.372-38.747 86.372-86.372-38.747-86.372-86.372-86.372z" style="" fill="#FFFFFF" data-original="#ffffff"></path><path d="M403.887 512H108.111a10.355 10.355 0 0 1-10.142-12.449l30.052-145.637c1.157-5.602 6.638-9.206 12.235-8.05 5.602 1.156 9.206 6.633 8.05 12.235l-27.483 133.189h270.353l-27.483-133.189c-1.156-5.602 2.448-11.08 8.05-12.235 5.599-1.157 11.078 2.447 12.235 8.05l30.053 145.639A10.357 10.357 0 0 1 403.887 512z" style="" fill="#2197D8" data-original="#2197d8"></path><path d="M444.405 512H67.594c-5.721 0-10.356-4.637-10.356-10.356s4.635-10.356 10.356-10.356h376.811c5.721 0 10.356 4.637 10.356 10.356S450.124 512 444.405 512z" style="" fill="#4D4D4D" data-original="#4d4d4d"></path><path d="M404.091 280.235c-16.751 0-30.378-13.627-30.378-30.378v-18.641c0-5.719 4.635-10.356 10.356-10.356s10.356 4.637 10.356 10.356v18.641c0 5.33 4.337 9.666 9.666 9.666s9.666-4.336 9.666-9.666v-19.331c0-5.33-4.337-9.666-9.666-9.666-16.751 0-30.378-13.627-30.378-30.378v-19.331c0-16.751 13.627-30.378 30.378-30.378s30.378 13.627 30.378 30.378v18.641c0 5.719-4.635 10.356-10.356 10.356s-10.356-4.637-10.356-10.356v-18.641c0-5.33-4.337-9.666-9.666-9.666s-9.666 4.336-9.666 9.666v19.331c0 5.33 4.337 9.666 9.666 9.666 16.751 0 30.378 13.627 30.378 30.378v19.331c0 16.751-13.629 30.378-30.378 30.378zM107.909 280.235c-16.751 0-30.378-13.627-30.378-30.378v-19.331c0-16.751 13.627-30.378 30.378-30.378 5.329 0 9.666-4.336 9.666-9.666v-19.331c0-5.33-4.337-9.666-9.666-9.666-5.329 0-9.666 4.336-9.666 9.666v18.641c0 5.719-4.635 10.356-10.356 10.356s-10.356-4.637-10.356-10.356v-18.641c0-16.751 13.627-30.378 30.378-30.378s30.378 13.627 30.378 30.378v19.331c0 16.751-13.627 30.378-30.378 30.378-5.329 0-9.666 4.336-9.666 9.666v19.331c0 5.33 4.337 9.666 9.666 9.666 5.329 0 9.666-4.336 9.666-9.666v-18.641c0-5.719 4.635-10.356 10.356-10.356s10.356 4.637 10.356 10.356v18.641c0 16.751-13.629 30.378-30.378 30.378zM295.353 388.973h-18.641c-5.721 0-10.356-4.637-10.356-10.356s4.635-10.356 10.356-10.356h18.641c5.329 0 9.666-4.336 9.666-9.666s-4.337-9.666-9.666-9.666h-19.331c-5.329 0-9.666 4.336-9.666 9.666 0 16.751-13.627 30.378-30.378 30.378h-19.331c-16.751 0-30.378-13.627-30.378-30.378 0-16.75 13.627-30.378 30.378-30.378h18.641c5.721 0 10.356 4.637 10.356 10.356s-4.635 10.356-10.356 10.356h-18.641c-5.329 0-9.666 4.336-9.666 9.666s4.337 9.666 9.666 9.666h19.331c5.329 0 9.666-4.336 9.666-9.666 0-16.75 13.627-30.378 30.378-30.378h19.331c16.751 0 30.378 13.627 30.378 30.378-.001 16.751-13.629 30.378-30.378 30.378zM295.353 92.791h-19.331c-16.751 0-30.378-13.627-30.378-30.378 0-5.33-4.337-9.666-9.666-9.666h-19.331c-5.329 0-9.666 4.336-9.666 9.666s4.337 9.666 9.666 9.666h18.641c5.721 0 10.356 4.637 10.356 10.356s-4.635 10.356-10.356 10.356h-18.641c-16.751 0-30.378-13.627-30.378-30.378s13.627-30.378 30.378-30.378h19.331c16.751 0 30.378 13.627 30.378 30.378 0 5.33 4.337 9.666 9.666 9.666h19.331c5.329 0 9.666-4.336 9.666-9.666s-4.337-9.666-9.666-9.666h-18.641c-5.721 0-10.356-4.637-10.356-10.356s4.635-10.356 10.356-10.356h18.641c16.751 0 30.378 13.627 30.378 30.378s-13.629 30.378-30.378 30.378zM373.368 123.514c-2.65 0-5.301-1.011-7.324-3.034l-20.022-20.022c-4.044-4.044-4.044-10.602 0-14.645 4.046-4.044 10.602-4.044 14.646 0l20.022 20.022c4.044 4.044 4.044 10.602 0 14.645a10.32 10.32 0 0 1-7.322 3.034zM158.653 338.229c-2.65 0-5.301-1.011-7.324-3.034l-20.022-20.022c-4.044-4.044-4.044-10.602 0-14.645 4.046-4.044 10.602-4.044 14.646 0l20.022 20.022c4.044 4.044 4.044 10.602 0 14.645a10.32 10.32 0 0 1-7.322 3.034zM138.632 123.514c-2.65 0-5.301-1.011-7.324-3.034-4.044-4.044-4.044-10.602 0-14.645l20.022-20.022c4.046-4.044 10.602-4.044 14.646 0s4.044 10.602 0 14.645l-20.022 20.022a10.321 10.321 0 0 1-7.322 3.034zM353.347 338.229c-2.65 0-5.301-1.011-7.324-3.034-4.044-4.044-4.044-10.602 0-14.645l20.022-20.022c4.046-4.044 10.602-4.044 14.646 0 4.044 4.044 4.044 10.602 0 14.645l-20.022 20.022a10.323 10.323 0 0 1-7.322 3.034z" style="" fill="#F2F2F2" data-original="#f2f2f2"></path></g></svg>