<svg xmlns="http://www.w3.org/2000/svg" version="1.1" xmlns:xlink="http://www.w3.org/1999/xlink" width="512" height="512" x="0" y="0" viewBox="0 0 512 512" style="enable-background:new 0 0 512 512" xml:space="preserve">
	<g>
		<path d="M288 416h-64c-8.284 0-15-6.716-15-15V298.79c0-4.659 2.165-9.054 5.859-11.894a14.99 14.99 0 0 1 13.001-2.601 109.225 109.225 0 0 0 56.279 0 15 15 0 0 1 18.86 14.495V401c.001 8.284-6.715 15-14.999 15z" style="" fill="#c6caf5" data-original="#c6caf5">
		</path>
		<path d="M288 416c8.284 0 15-6.716 15-15V298.79c0-4.659-2.165-9.054-5.859-11.894a15.002 15.002 0 0 0-13.001-2.601 109.313 109.313 0 0 1-28.14 3.687V416h32z" style="" fill="#abb2ef" data-original="#abb2ef">
		</path>
		<path d="M400 512H112c-8.284 0-15-6.716-15-15v-49c0-25.916 21.084-47 47-47h224c25.916 0 47 21.084 47 47v49c0 8.284-6.716 15-15 15z" style="" fill="#995D5C" data-original="#995d5c">
		</path>
		<path d="M368 401H256v111h144c8.284 0 15-6.716 15-15v-49c0-25.916-21.084-47-47-47z" style="" fill="#994D4D" data-original="#994d4d">
		</path>
		<path d="M415 452v-19c0-25.916-21.084-47-47-47H144c-25.916 0-47 21.084-47 47v19h318z" style="" fill="#e1e5f9" data-original="#e1e5f9">
		</path>
		<path d="M368 386H256v66h159v-19c0-25.916-21.084-47-47-47z" style="" fill="#c6caf5" data-original="#c6caf5">
		</path>
		<path d="M155.02 239c0 8.284-6.716 15-15 15H95c-52.383 0-95-42.617-95-95V79c0-8.284 6.716-15 15-15h65c8.284 0 15.005 6.716 15.005 15S88.294 94 80.01 94H30v65c0 35.841 29.159 65 65 65h45.02c8.284 0 15 6.716 15 15z" style="" fill="#c6caf5" data-original="#c6caf5">
		</path>
		<path d="M512 159c0 52.383-42.617 95-95 95h-44.58c-8.284 0-15-6.716-15-15s6.716-15 15-15H417c35.841 0 65-29.159 65-65V94h-50c-8.284 0-15.005-6.716-15.005-15s6.711-15 14.995-15H497c8.284 0 15 6.716 15 15v80z" style="" fill="#abb2ef" data-original="#abb2ef">
		</path>
		<path d="M432 0H80c-8.28 0-15 6.72-15 15v63.88c0 .34.01.68.04 1.02.01.2.03.39.05.58.01.15.02.29.04.43C66.08 88.29 72.38 94 80.01 94h351.98c7.68 0 14.01-5.77 14.89-13.21.02-.11.03-.22.03-.33.02-.13.03-.27.04-.4.01-.12.02-.23.02-.35.02-.08.02-.16.02-.25.01-.2.01-.39.01-.58V15c0-8.28-6.72-15-15-15z" style="" fill="#c6caf5" data-original="#c6caf5">
		</path>
		<path d="M431.99 94c7.68 0 14.01-5.77 14.89-13.21.02-.11.03-.22.03-.33.02-.13.03-.27.04-.4.01-.12.02-.23.02-.35.02-.08.02-.16.02-.25.01-.2.01-.39.01-.58V15c0-8.28-6.72-15-15-15H256v94h175.99z" style="" fill="#abb2ef" data-original="#abb2ef">
		</path>
		<path d="M65 64v14.88c0 .34.01.68.04 1.02.01.2.03.39.05.58.01.15.02.29.04.43 5.61 64.29 27.62 123.71 62 167.37 26.24 33.33 58.4 55.81 93.01 65 11.75 3.13 23.81 4.72 35.86 4.72s24.11-1.59 35.85-4.71c34.62-9.2 66.78-31.68 93.02-65.01 34.4-43.69 56.42-103.16 62.01-167.49.02-.11.03-.22.03-.33.03-.25.05-.5.06-.75.02-.08.02-.16.02-.25.01-.2.01-.39.01-.58V64H65z" style="" fill="#e1e5f9" data-original="#e1e5f9">
		</path>
		<path d="M256 318c12.05 0 24.11-1.59 35.85-4.71 34.62-9.2 66.78-31.68 93.02-65.01 34.4-43.69 56.42-103.16 62.01-167.49.02-.11.03-.22.03-.33.03-.25.05-.5.06-.75.02-.08.02-.16.02-.25.01-.2.01-.39.01-.58V64H256v254z" style="" fill="#c6caf5" data-original="#c6caf5">
		</path>
	</g>
</svg>
