<svg xmlns="http://www.w3.org/2000/svg" version="1.1" xmlns:xlink="http://www.w3.org/1999/xlink" width="512" height="512" x="0" y="0" viewBox="0 0 512 512" style="enable-background:new 0 0 512 512" xml:space="preserve" class=""><g><path fill="#88C791" d="M272 424V264h-32v128l-16 16 16 16v64h32v-32l16-16z" opacity="1" data-original="#88c791"></path><path fill="#C7312E" d="M360.246 40a16 16 0 0 1 16 15.943C376.445 104.919 371.73 248 304 248c-59.522 0-69.838-142.153-71.625-191.424A15.994 15.994 0 0 1 248.365 40z" opacity="1" data-original="#c7312e" class=""></path><path fill="#C7312E" d="M264.246 40a16 16 0 0 1 16 15.943C280.445 104.919 275.73 248 208 248c-59.522 0-69.838-142.153-71.625-191.424A15.994 15.994 0 0 1 152.365 40z" opacity="1" data-original="#c7312e" class=""></path><path fill="#962523" d="M296.118 24a31.991 31.991 0 0 1 32 32.621C326.939 115.313 317.165 232 256 232c-53.577 0-67.286-115.173-70.794-174.113A31.992 31.992 0 0 1 217.152 24z" opacity="1" data-original="#962523" class=""></path><path fill="#C7312E" d="M325.65 43.65C319.5 52.04 300.22 72 256 72c-42.4 0-61.87-18.34-68.82-27.25A32 32 0 0 1 217.15 24h78.97a31.989 31.989 0 0 1 29.53 19.65z" opacity="1" data-original="#c7312e" class=""></path><path fill="#962523" d="M304 216c0 40-24 80-80 80-64 0-80-48-80-88 0-48-32-136-32-136s192 32 192 144z" opacity="1" data-original="#962523" class=""></path><path fill="#C7312E" d="M112 72v16.83a15.988 15.988 0 0 0 14.66 15.94c.29.02.58.05.88.07C162.32 107.85 264 120 304 216 304 64 112 72 112 72z" opacity="1" data-original="#c7312e" class=""></path><path fill="#C7312E" d="M208 216c0 40 24 80 80 80 64 0 80-48 80-88 0-48 32-136 32-136s-192 32-192 144z" opacity="1" data-original="#c7312e" class=""></path><path fill="#EB423F" d="M400 72v16.83a15.988 15.988 0 0 1-14.66 15.94c-.29.02-.58.05-.88.07C349.68 107.85 248 120 208 216 208 64 400 72 400 72z" opacity="1" data-original="#eb423f" class=""></path><path fill="#962523" d="M272 248c0 40-24 80-80 80-64 0-80-48-80-88 0-48-32-104-32-104s192 0 192 112z" opacity="1" data-original="#962523" class=""></path><path fill="#C7312E" d="M80 136v16.83a15.988 15.988 0 0 0 14.66 15.94c.29.02.58.05.88.07 34.78 3.01 120.25 16.7 176.46 79.16 0-112-192-112-192-112z" opacity="1" data-original="#c7312e" class=""></path><path fill="#C7312E" d="M240 248c0 40 24 80 80 80 64 0 80-48 80-88 0-48 32-104 32-104s-192 0-192 112z" opacity="1" data-original="#c7312e" class=""></path><path fill="#EB423F" d="M432 136v16.83a15.988 15.988 0 0 1-14.66 15.94c-.29.02-.58.05-.88.07-34.78 3.01-120.25 16.7-176.46 79.16 0-112 192-112 192-112z" opacity="1" data-original="#eb423f" class=""></path><g fill="#6A9C72"><path d="M368 424s0-40-40-80c-16-16-72-16-72-16s40 16 64 40 48 56 48 56zM144 424s0-40 40-80c16-16 72-16 72-16s-40 16-64 40-48 56-48 56z" fill="#6A9C72" opacity="1" data-original="#6a9c72"></path></g></g></svg>