<svg xmlns="http://www.w3.org/2000/svg" version="1.1" xmlns:xlink="http://www.w3.org/1999/xlink" width="512" height="512" x="0" y="0" viewBox="0 0 512 512" style="enable-background:new 0 0 512 512" xml:space="preserve"><g><path fill="#CC0048" d="M363.4 122.105H512v267.791H363.4z" opacity="1" data-original="#cc0048"></path><g fill="#F23546"><path d="M122.465 352.181 122.464 512H256l31.97-159.819z" fill="#F23546" opacity="1" data-original="#f23546"></path><path d="M0 122.105h130.689v267.791H0zM122.465 0l9.778 135.128h150.932L256 0z" fill="#F23546" opacity="1" data-original="#f23546"></path></g><path fill="#CC0048" d="M166.372 106.224 122.465 0 0 122.105l106.224 44.091 50.884-7.757zM256 0h133.536v135.128H256z" opacity="1" data-original="#cc0048"></path><path fill="#9E0033" d="m345.628 106.224-6.174 67.238 66.322-7.266L512 122.105 389.536 0z" opacity="1" data-original="#9e0033"></path><path fill="#CC0048" d="M106.224 345.804 0 389.895 122.464 512l43.908-106.224-8.228-56.185zM256 320.064h133.536V512H256z" opacity="1" data-original="#cc0048"></path><path fill="#9E0033" d="M345.628 405.776 389.536 512 512 389.895l-106.224-44.091h-53.889z" opacity="1" data-original="#9e0033"></path><path fill="#FC7E58" d="m166.372 106.224-60.148 59.972v179.608l60.148 59.972H256l42.8-133.471L256 106.224z" opacity="1" data-original="#fc7e58"></path><path fill="#F23546" d="M345.628 106.224H256v299.552h89.628l60.148-59.972V166.196z" opacity="1" data-original="#f23546"></path></g></svg>