<svg xmlns="http://www.w3.org/2000/svg" version="1.1" xmlns:xlink="http://www.w3.org/1999/xlink" width="512" height="512" x="0" y="0" viewBox="0 0 512 512" style="enable-background:new 0 0 512 512" xml:space="preserve" class=""><g><path fill="#006EFF" d="m99.76 256 44.502 111.742L256 412.24l83.203-155.397L256 99.76l-127.005 45.261z" opacity="1" data-original="#006eff" class=""></path><path fill="#0050C1" d="M256 99.76v312.48l114.878-44.862L412.24 256l-41.362-105.154z" opacity="1" data-original="#0050c1"></path><path fill="#006EFF" d="M512 256v56.47L404.22 420.25H336.2l-10.09-78.12L412.24 256l55.658-38.881z" opacity="1" data-original="#006eff" class=""></path><path fill="#00317E" d="M512 199.53V256h-99.76l-78.12-78.12 2.08-78.11h76.04z" opacity="1" data-original="#00317e"></path><path fill="#0050C1" d="M256 412.24 309.724 452 256 512h-56.47l-99.76-99.76 9.148-70.11 68.962-8.01z" opacity="1" data-original="#0050c1"></path><path fill="#00317E" d="M404.22 420.25 312.47 512H256v-99.76l70.11-70.11z" opacity="1" data-original="#00317e"></path><path fill="#0050C1" d="M169.87 185.89 99.76 256l-32.398 44.197L0 256v-56.47l91.75-91.75 78.12 14.462z" opacity="1" data-original="#0050c1"></path><path fill="#3AAAFF" d="m177.88 334.12-78.11 78.12h-.01L0 312.47V256h99.76z" opacity="1" data-original="#3aaaff" class=""></path><path fill="#FFE566" d="M412.24 99.77v-.01" opacity="1" data-original="#ffe566"></path><path fill="#3AAAFF" d="m256 0 44.37 50.181L256 99.76l-86.13 86.13-78.12-78.11L199.53 0z" opacity="1" data-original="#3aaaff" class=""></path><path fill="#006EFF" d="m412.24 99.77-78.12 78.11L256 99.76V0h56.47z" opacity="1" data-original="#006eff" class=""></path></g></svg>