<svg xmlns="http://www.w3.org/2000/svg" xmlns:xlink="http://www.w3.org/1999/xlink" version="1.1" x="0" y="0" style="enable-background:new 0 0 512 512" xml:space="preserve" class="" viewBox="41.1 0 429.81 512"><g><path d="M256.257 196.466c31.765 0 57.515-25.75 57.515-57.515v-30.163c0-2.81-2.276-5.094-5.086-5.082-14.062.06-52.429 3.837-52.429 43.297v49.463z" style="" fill="#F8C442" data-original="#f8c442" class=""/><path d="M308.679 103.706a5.075 5.075 0 0 1 5.094 5.082v30.16c0 31.767-25.751 57.518-57.518 57.518v-15.081c26.29-5.294 46.085-28.525 46.085-56.38V103.97a86.078 86.078 0 0 1 6.339-.264z" style="" fill="#F4A240" data-original="#f4a240" class=""/><path d="M255.745 196.466c-31.765 0-57.515-25.75-57.515-57.515v-30.163c0-2.81 2.276-5.094 5.086-5.082 14.062.06 52.429 3.837 52.429 43.297v49.463zM252.463.662a85.988 85.988 0 0 0-7.582 4.895c-32.878 23.668-32.878 72.696 0 96.364 5.801 4.176 10.081 6.237 10.081 6.237s4.28-2.061 10.081-6.237c32.878-23.668 32.878-72.696 0-96.364a86.373 86.373 0 0 0-7.582-4.895 5.046 5.046 0 0 0-4.998 0z" style="" fill="#F8C442" data-original="#f8c442" class=""/><path d="M265.05 101.92c-5.802 4.177-10.088 6.238-10.088 6.238s-2.891-1.395-7.142-4.204a85.374 85.374 0 0 0 2.945-2.034c32.821-23.638 32.821-72.724 0-96.362a85.374 85.374 0 0 0-2.945-2.034A82.49 82.49 0 0 1 252.469.66a5.058 5.058 0 0 1 5.012.012 85.793 85.793 0 0 1 7.57 4.886c32.82 23.638 32.82 72.724-.001 96.362z" style="" fill="#F4A240" data-original="#f4a240" class=""/><path d="M256.257 282.844c31.765 0 57.515-25.75 57.515-57.515v-30.163c0-2.81-2.276-5.094-5.086-5.082-14.062.06-52.429 3.837-52.429 43.297v49.463z" style="" fill="#F8C442" data-original="#f8c442" class=""/><path d="M308.679 190.085a5.075 5.075 0 0 1 5.094 5.082v30.16c0 31.767-25.751 57.518-57.518 57.518v-15.081c26.29-5.294 46.085-28.525 46.085-56.38v-21.036a86.02 86.02 0 0 1 6.339-.263z" style="" fill="#F4A240" data-original="#f4a240" class=""/><path d="M255.745 282.844c-31.765 0-57.515-25.75-57.515-57.515v-30.163c0-2.81 2.276-5.094 5.086-5.082 14.062.06 52.429 3.837 52.429 43.297v49.463zM256.257 369.223c31.765 0 57.515-25.75 57.515-57.515v-30.163c0-2.81-2.276-5.094-5.086-5.082-14.062.06-52.429 3.837-52.429 43.297v49.463z" style="" fill="#F8C442" data-original="#f8c442" class=""/><path d="M308.679 276.463a5.075 5.075 0 0 1 5.094 5.082v30.16c0 31.767-25.751 57.518-57.518 57.518v-15.081c26.29-5.294 46.085-28.525 46.085-56.38v-21.036a86.577 86.577 0 0 1 6.339-.263z" style="" fill="#F4A240" data-original="#f4a240" class=""/><path d="M255.745 369.223c-31.765 0-57.515-25.75-57.515-57.515v-30.163c0-2.81 2.276-5.094 5.086-5.082 14.062.06 52.429 3.837 52.429 43.297v49.463zM256.257 455.601c31.765 0 57.515-25.75 57.515-57.515v-30.163c0-2.81-2.276-5.094-5.086-5.082-14.062.06-52.429 3.837-52.429 43.297v49.463z" style="" fill="#F8C442" data-original="#f8c442" class=""/><path d="M308.679 362.842c2.805-.012 5.094 2.277 5.094 5.082v30.16c0 31.767-25.751 57.518-57.518 57.518v-15.081c26.29-5.294 46.085-28.525 46.085-56.38v-21.036a86.02 86.02 0 0 1 6.339-.263z" style="" fill="#F4A240" data-original="#f4a240" class=""/><path d="M255.745 455.601c-31.765 0-57.515-25.75-57.515-57.515v-30.163c0-2.81 2.276-5.094 5.086-5.082 14.062.06 52.429 3.837 52.429 43.297v49.463z" style="" fill="#F8C442" data-original="#f8c442" class=""/><path d="M256.001 512.001a7.622 7.622 0 0 1-7.622-7.622V66.39a7.622 7.622 0 0 1 15.244 0v437.99a7.622 7.622 0 0 1-7.622 7.621z" style="" fill="#F4A240" data-original="#f4a240" class=""/><path d="M418.827 219.42c28.761 0 52.076-23.315 52.076-52.076v-26.826c0-2.82-2.293-5.113-5.113-5.082-13.122.144-46.963 3.935-46.963 39.198v44.786z" style="" fill="#F8C442" data-original="#f8c442" class=""/><path d="M465.791 135.436c2.82-.031 5.113 2.261 5.113 5.082v26.824c0 28.763-23.316 52.079-52.079 52.079v-13.655c23.803-4.794 41.727-25.827 41.727-51.048v-19.046a77.321 77.321 0 0 1 5.239-.236z" style="" fill="#F4A240" data-original="#f4a240" class=""/><path d="M418.363 219.42c-28.761 0-52.076-23.315-52.076-52.076v-26.826c0-2.82 2.293-5.113 5.113-5.082 13.122.144 46.963 3.935 46.963 39.198v44.786zM415.101 42.3a78.325 78.325 0 0 0-6.574 4.265c-29.769 21.43-29.769 65.821 0 87.251 5.252 3.781 9.128 5.647 9.128 5.647s3.875-1.866 9.128-5.647c29.769-21.43 29.769-65.821 0-87.251a78.583 78.583 0 0 0-6.574-4.265 5.1 5.1 0 0 0-5.108 0z" style="" fill="#F8C442" data-original="#f8c442" class=""/><path d="M426.788 133.815c-5.254 3.782-9.134 5.648-9.134 5.648s-2.618-1.263-6.467-3.806a75.491 75.491 0 0 0 2.667-1.842c29.717-21.403 29.717-65.847 0-87.249a78.272 78.272 0 0 0-2.667-1.842 75.837 75.837 0 0 1 3.935-2.436 5.052 5.052 0 0 1 5.051-.009 78.422 78.422 0 0 1 6.615 4.287c29.718 21.402 29.718 65.846 0 87.249z" style="" fill="#F4A240" data-original="#f4a240" class=""/><path d="M418.827 297.63c28.761 0 52.076-23.315 52.076-52.076v-26.826c0-2.82-2.293-5.113-5.113-5.082-13.122.144-46.963 3.935-46.963 39.198v44.786z" style="" fill="#F8C442" data-original="#f8c442" class=""/><path d="M465.791 213.646c2.82-.031 5.113 2.261 5.113 5.082v26.824c0 28.763-23.316 52.079-52.079 52.079v-13.655c23.803-4.794 41.727-25.827 41.727-51.048v-19.046a77.321 77.321 0 0 1 5.239-.236z" style="" fill="#F4A240" data-original="#f4a240" class=""/><path d="M418.363 297.63c-28.761 0-52.076-23.315-52.076-52.076v-26.826c0-2.82 2.293-5.113 5.113-5.082 13.122.144 46.963 3.935 46.963 39.198v44.786zM418.827 375.84c28.761 0 52.076-23.315 52.076-52.076v-26.826c0-2.82-2.293-5.113-5.113-5.082-13.122.144-46.963 3.935-46.963 39.198v44.786z" style="" fill="#F8C442" data-original="#f8c442" class=""/><path d="M465.791 291.856c2.82-.031 5.113 2.261 5.113 5.082v26.824c0 28.763-23.316 52.079-52.079 52.079v-13.655c23.803-4.794 41.727-25.827 41.727-51.048v-19.046a76.673 76.673 0 0 1 5.239-.236z" style="" fill="#F4A240" data-original="#f4a240" class=""/><path d="M418.363 375.84c-28.761 0-52.076-23.315-52.076-52.076v-26.826c0-2.82 2.293-5.113 5.113-5.082 13.122.144 46.963 3.935 46.963 39.198v44.786zM418.827 454.049c28.761 0 52.076-23.315 52.076-52.076v-26.826c0-2.82-2.293-5.113-5.113-5.082-13.122.144-46.963 3.935-46.963 39.198v44.786z" style="" fill="#F8C442" data-original="#f8c442" class=""/><path d="M465.791 370.065c2.82-.031 5.113 2.261 5.113 5.082v26.824c0 28.763-23.316 52.079-52.079 52.079v-13.655c23.803-4.794 41.727-25.827 41.727-51.048V370.3a78.59 78.59 0 0 1 5.239-.235z" style="" fill="#F4A240" data-original="#f4a240" class=""/><path d="M418.363 454.049c-28.761 0-52.076-23.315-52.076-52.076v-26.826c0-2.82 2.293-5.113 5.113-5.082 13.122.144 46.963 3.935 46.963 39.198v44.786z" style="" fill="#F8C442" data-original="#f8c442" class=""/><path d="M418.595 505.837a7.622 7.622 0 0 1-7.622-7.622v-396.57a7.622 7.622 0 0 1 15.244 0v396.57a7.623 7.623 0 0 1-7.622 7.622z" style="" fill="#F4A240" data-original="#f4a240" class=""/><path d="M93.637 219.42c28.761 0 52.076-23.315 52.076-52.076v-26.826c0-2.82-2.293-5.113-5.113-5.082-13.122.144-46.963 3.935-46.963 39.198v44.786z" style="" fill="#F8C442" data-original="#f8c442" class=""/><path d="M140.601 135.436c2.82-.031 5.113 2.261 5.113 5.082v26.824c0 28.763-23.316 52.079-52.079 52.079v-13.655c23.803-4.794 41.727-25.827 41.727-51.048v-19.046a77.35 77.35 0 0 1 5.239-.236z" style="" fill="#F4A240" data-original="#f4a240" class=""/><path d="M93.174 219.42c-28.761 0-52.076-23.315-52.076-52.076v-26.826c0-2.82 2.293-5.113 5.113-5.082 13.122.144 46.963 3.935 46.963 39.198v44.786zM89.911 42.3a78.325 78.325 0 0 0-6.574 4.265c-29.769 21.43-29.769 65.821 0 87.251 5.252 3.781 9.128 5.647 9.128 5.647s3.875-1.866 9.128-5.647c29.769-21.43 29.769-65.821 0-87.251a78.583 78.583 0 0 0-6.574-4.265 5.1 5.1 0 0 0-5.108 0z" style="" fill="#F8C442" data-original="#f8c442" class=""/><path d="M101.599 133.815c-5.254 3.782-9.134 5.648-9.134 5.648s-2.618-1.263-6.467-3.806a75.491 75.491 0 0 0 2.667-1.842c29.718-21.403 29.718-65.847 0-87.249a78.272 78.272 0 0 0-2.667-1.842 75.837 75.837 0 0 1 3.935-2.436 5.052 5.052 0 0 1 5.051-.009 78.422 78.422 0 0 1 6.615 4.287c29.717 21.402 29.717 65.846 0 87.249z" style="" fill="#F4A240" data-original="#f4a240" class=""/><path d="M93.637 297.63c28.761 0 52.076-23.315 52.076-52.076v-26.826c0-2.82-2.293-5.113-5.113-5.082-13.122.144-46.963 3.935-46.963 39.198v44.786z" style="" fill="#F8C442" data-original="#f8c442" class=""/><path d="M140.601 213.646c2.82-.031 5.113 2.261 5.113 5.082v26.824c0 28.763-23.316 52.079-52.079 52.079v-13.655c23.803-4.794 41.727-25.827 41.727-51.048v-19.046a77.35 77.35 0 0 1 5.239-.236z" style="" fill="#F4A240" data-original="#f4a240" class=""/><path d="M93.174 297.63c-28.761 0-52.076-23.315-52.076-52.076v-26.826c0-2.82 2.293-5.113 5.113-5.082 13.122.144 46.963 3.935 46.963 39.198v44.786zM93.637 375.84c28.761 0 52.076-23.315 52.076-52.076v-26.826c0-2.82-2.293-5.113-5.113-5.082-13.122.144-46.963 3.935-46.963 39.198v44.786z" style="" fill="#F8C442" data-original="#f8c442" class=""/><path d="M140.601 291.856c2.82-.031 5.113 2.261 5.113 5.082v26.824c0 28.763-23.316 52.079-52.079 52.079v-13.655c23.803-4.794 41.727-25.827 41.727-51.048v-19.046a76.7 76.7 0 0 1 5.239-.236z" style="" fill="#F4A240" data-original="#f4a240" class=""/><path d="M93.174 375.84c-28.761 0-52.076-23.315-52.076-52.076v-26.826c0-2.82 2.293-5.113 5.113-5.082 13.122.144 46.963 3.935 46.963 39.198v44.786zM93.637 454.049c28.761 0 52.076-23.315 52.076-52.076v-26.826c0-2.82-2.293-5.113-5.113-5.082-13.122.144-46.963 3.935-46.963 39.198v44.786z" style="" fill="#F8C442" data-original="#f8c442" class=""/><path d="M140.601 370.065c2.82-.031 5.113 2.261 5.113 5.082v26.824c0 28.763-23.316 52.079-52.079 52.079v-13.655c23.803-4.794 41.727-25.827 41.727-51.048V370.3a78.619 78.619 0 0 1 5.239-.235z" style="" fill="#F4A240" data-original="#f4a240" class=""/><path d="M93.174 454.049c-28.761 0-52.076-23.315-52.076-52.076v-26.826c0-2.82 2.293-5.113 5.113-5.082 13.122.144 46.963 3.935 46.963 39.198v44.786z" style="" fill="#F8C442" data-original="#f8c442" class=""/><path d="M93.406 505.837a7.622 7.622 0 0 1-7.622-7.622v-396.57a7.622 7.622 0 0 1 15.244 0v396.57a7.623 7.623 0 0 1-7.622 7.622z" style="" fill="#F4A240" data-original="#f4a240" class=""/></g></svg>