<svg xmlns="http://www.w3.org/2000/svg" version="1.1" xmlns:xlink="http://www.w3.org/1999/xlink" width="512" height="512" x="0" y="0" viewBox="0 0 511.7 511.7" style="enable-background:new 0 0 512 512" xml:space="preserve" class=""><g><path fill="#4FC6B9" d="m195.85 255.7-52.5 62.831-51.599 2.268c-.601-1.5-.901-3.3-.901-5.099v-120c0-1.8.3-3.6.901-5.101l51.599 2.269z" opacity="1" data-original="#4fc6b9"></path><path fill="#36B3B3" d="M420.85 195.7v120c0 1.8-.3 3.6-.901 5.099l-51.599-2.268-52.5-62.831 52.5-62.832 51.599-2.269c.601 1.501.901 3.301.901 5.101z" opacity="1" data-original="#36b3b3"></path><path fill="#80ECC6" d="m315.85 255.7 4.167 109.789L255.85 511.7l-63.121-141.766L195.85 255.7z" opacity="1" data-original="#80ecc6"></path><path fill="#99FFCC" d="M315.85 255.7h-120l-6.064-101.609L255.85 0l66.225 154.774z" opacity="1" data-original="#99ffcc"></path><g fill="#68D9C0"><path d="m255.85 0-60 255.7-104.099-65.102c.599-1.5 1.5-3.3 2.699-4.499l150-181C247.151 1.8 251.649 0 255.85 0zM255.85 511.7c-3.955 0-9.261-2.19-11.4-5.4l-150-181c-1.199-1.201-2.1-3.001-2.699-4.501L195.85 255.7zM255.85 255.7v256l64.167-146.212L315.85 255.7z" fill="#68D9C0" opacity="1" data-original="#68d9c0"></path></g><path fill="#80ECC6" d="m315.85 255.7 6.225-100.926L255.85 0v255.7z" opacity="1" data-original="#80ecc6"></path><path fill="#4FC6B9" d="M419.949 190.598 315.85 255.7 255.85 0c4.2 0 8.699 1.8 11.4 5.099l150 181c1.199 1.2 2.1 3 2.699 4.499z" opacity="1" data-original="#4fc6b9"></path><path fill="#4FC6B9" d="M419.949 320.799c-.599 1.5-1.5 3.3-2.699 4.501l-150 181c-2.138 3.208-7.44 5.4-11.4 5.4l60-256z" opacity="1" data-original="#4fc6b9"></path></g></svg>