<svg xmlns="http://www.w3.org/2000/svg" version="1.1" xmlns:xlink="http://www.w3.org/1999/xlink" width="512" height="512" x="0" y="0" viewBox="0 0 512 512" style="enable-background:new 0 0 512 512" xml:space="preserve" class=""><g><path fill="#A77D73" d="M442.298 302.616v64.881c0 1.587-.021 3.163-.082 4.739-.659 20.799-5.728 40.496-14.299 58.174a142.581 142.581 0 0 1-8.695 15.453c-21.129 32.667-55.073 56.268-94.725 63.675A145.21 145.21 0 0 1 297.805 512h-91.367c-9.127 0-18.049-.845-26.702-2.462-39.652-7.407-73.606-31.008-94.725-63.675a142.581 142.581 0 0 1-8.695-15.453c-8.571-17.678-13.64-37.375-14.299-58.174a120.438 120.438 0 0 1-.082-4.739v-64.881l190.182-33.141z" opacity="1" data-original="#a77d73" class=""></path><path fill="#98695E" d="M442.295 302.611v25.595H61.933v-25.595l190.181-33.134z" opacity="1" data-original="#98695e" class=""></path><path fill="#98695E" d="M294.67 512h-88.245c-79.796 0-144.493-64.697-144.493-144.504v-64.881l88.234-15.37v80.251C150.166 447.303 214.863 512 294.67 512z" opacity="1" data-original="#98695e" class=""></path><g fill="#B48E84"><path d="M394.817 302.616v64.881c0 40.187-11.177 78.057-31.462 106.644-11.177 15.741-24.395 27.702-38.858 35.397A145.21 145.21 0 0 1 297.805 512h-91.367c-9.127 0-18.049-.845-26.702-2.462-14.464-7.695-27.681-19.656-38.858-35.397-20.295-28.588-31.462-66.457-31.462-106.644v-64.881a7.73 7.73 0 0 1 7.726-7.726 7.729 7.729 0 0 1 7.726 7.726v64.881c0 74.626 41.65 135.479 93.19 136.746-4.852-7.881-9.138-18.749-12.826-32.585-7.448-27.918-11.548-64.911-11.548-104.161v-64.881c0-4.265 3.461-7.726 7.726-7.726s7.726 3.461 7.726 7.726v64.881c0 37.942 3.915 73.524 11.023 100.185 7.716 28.938 16.308 36.592 19.779 36.592h24.354c3.472 0 12.063-7.654 19.779-36.592 7.108-26.661 11.023-62.243 11.023-100.185v-64.881a7.722 7.722 0 0 1 7.726-7.726 7.729 7.729 0 0 1 7.726 7.726v64.881c0 39.25-4.1 76.244-11.548 104.161-3.688 13.836-7.974 24.704-12.826 32.585 51.54-1.267 93.19-62.12 93.19-136.746v-64.881a7.729 7.729 0 0 1 15.455 0z" fill="#B48E84" opacity="1" data-original="#b48e84"></path><path d="M442.298 356.783v10.714c0 1.587-.021 3.163-.082 4.739H62.017a120.438 120.438 0 0 1-.082-4.739v-10.714zM427.916 430.41a142.581 142.581 0 0 1-8.695 15.453H85.01a142.581 142.581 0 0 1-8.695-15.453zM403.346 202.286h-20.212a7.726 7.726 0 1 1 0-15.452h20.212a7.726 7.726 0 1 1 0 15.452zM434.086 95.096h-31.974a7.726 7.726 0 1 1 0-15.452h31.974a7.725 7.725 0 0 1 7.726 7.726 7.725 7.725 0 0 1-7.726 7.726zM374.706 95.096H300.08a7.726 7.726 0 1 1 0-15.452h74.626c4.268 0 7.726 3.459 7.726 7.726s-3.458 7.726-7.726 7.726z" fill="#B48E84" opacity="1" data-original="#b48e84"></path></g><path fill="#A77D73" d="M425.009 288.259c-11.964 0-21.663-9.699-21.663-21.663v-72.039c0-83.389-67.841-151.23-151.23-151.23s-151.231 67.842-151.231 151.23v72.039c0 11.964-9.699 21.663-21.663 21.663s-21.663-9.699-21.663-21.663v-72.039C57.558 87.278 144.836 0 252.114 0c107.279 0 194.557 87.278 194.557 194.557v72.039c.001 11.964-9.698 21.663-21.662 21.663z" opacity="1" data-original="#a77d73" class=""></path><g fill="#98695E"><path d="M78.512 266.596v-72.039C78.512 90.793 160.165 5.746 262.591.284A196.676 196.676 0 0 0 252.114 0C144.836 0 57.558 87.278 57.558 194.557v72.039c0 11.964 9.699 21.663 21.663 21.663 3.802 0 7.371-.986 10.477-2.706-6.667-3.693-11.186-10.795-11.186-18.957zM424.3 266.596v-72.039c0-83.389-67.841-151.23-151.23-151.23-3.522 0-7.014.131-10.477.369 78.519 5.4 140.753 70.995 140.753 150.861v72.039c0 11.964 9.699 21.663 21.663 21.663 3.802 0 7.371-.986 10.477-2.706-6.668-3.693-11.186-10.795-11.186-18.957z" fill="#98695E" opacity="1" data-original="#98695e" class=""></path></g><path fill="#A77D73" d="M442.298 302.616H61.932c-18.302 0-33.138-14.836-33.138-33.138S43.63 236.34 61.932 236.34h380.366c18.302 0 33.138 14.836 33.138 33.138 0 18.301-14.836 33.138-33.138 33.138z" opacity="1" data-original="#a77d73" class=""></path><path fill="#98695E" d="M158.492 302.611H61.928c-18.295 0-33.134-14.828-33.134-33.134a32.993 32.993 0 0 1 9.705-23.429c6.001-6.001 14.276-9.705 23.429-9.705h96.564a32.997 32.997 0 0 0-23.429 9.705 32.993 32.993 0 0 0-9.705 23.429c0 18.306 14.828 33.134 33.134 33.134z" opacity="1" data-original="#98695e" class=""></path><path fill="#B48E84" d="M383.134 202.286c-16.814 0-30.493-13.679-30.493-30.493 0-8.136 3.174-15.791 8.938-21.554 5.759-5.758 13.413-8.929 21.555-8.929h61.512c12.741 0 23.108-10.366 23.108-23.107 0-6.175-2.403-11.974-6.768-16.33-4.365-4.374-10.165-6.777-16.34-6.777h-10.559a7.726 7.726 0 1 1 0-15.452h10.559c10.308 0 19.992 4.014 27.267 11.303 7.28 7.266 11.294 16.949 11.294 27.257 0 21.262-17.298 38.559-38.56 38.559h-61.512a14.93 14.93 0 0 0-10.628 4.402 14.934 14.934 0 0 0-4.412 10.628c0 8.293 6.747 15.041 15.04 15.041a7.727 7.727 0 0 1-.001 15.452z" opacity="1" data-original="#b48e84"></path></g></svg>