<svg xmlns="http://www.w3.org/2000/svg" version="1.1" xmlns:xlink="http://www.w3.org/1999/xlink" width="512" height="512" x="0" y="0" viewBox="0 0 682.667 682.667" style="enable-background:new 0 0 512 512" xml:space="preserve"><g><defs><clipPath id="a" clipPathUnits="userSpaceOnUse"><path d="M0 512h512V0H0Z" fill="#000000" opacity="1" data-original="#000000"></path></clipPath></defs><g clip-path="url(#a)" transform="matrix(1.33333 0 0 -1.33333 0 682.667)"><path d="M0 0h-.004l-104.503.004c-15.022.002-27.242 12.215-27.242 27.224l.008 236.957c0 22.535 9.813 43.904 26.922 58.628 10.69 9.2 16.821 18.331 16.821 25.051l.004 135.687c0 15.011 2.222 27.222 17.244 27.222l37.021-.001c15.021 0 17.243-12.212 17.243-27.223l-.005-135.689c0-6.719 6.131-15.85 16.82-25.05 17.108-14.726 26.92-36.096 26.919-58.631l-.007-236.957c0-7.278-2.837-14.117-7.988-19.258C14.109 2.828 7.271 0 0 0" style="fill-opacity:1;fill-rule:nonzero;stroke:none" transform="translate(206.022 1.227)" fill="#414952" data-original="#414952"></path><path d="m0 0-44.515 31.626v67.511A84.183 84.183 0 0 1 2.61 125.352c16.058 17.703 23.932 41.539 21.601 65.395a11.74 11.74 0 0 1-.042.377L10.224 304.255A15 15 0 0 1-4.663 317.42h-109.703c-7.574 0-13.96-5.648-14.887-13.165l-13.945-113.13a11.74 11.74 0 0 1-.042-.377c-2.331-23.856 5.543-47.693 21.601-65.396a84.184 84.184 0 0 1 47.124-26.215V31.625L-119.029 0a13.174 13.174 0 0 1 7.631-23.914H-7.63A13.174 13.174 0 0 1 0 0" style="fill-opacity:1;fill-rule:nonzero;stroke:none" transform="translate(423.105 23.914)" fill="#E3F7FF" data-original="#e3f7ff"></path><path d="M0 0c-10.689 9.2-16.82 18.331-16.819 25.051l.004 135.688c0 15.011-2.221 27.224-17.242 27.224l-18.522.001v-510.772l52.246-.002h.004c7.271 0 14.109 2.829 19.253 7.964 5.151 5.142 7.988 11.981 7.989 19.258l.006 236.957C26.92-36.096 17.108-14.726 0 0" style="fill-opacity:1;fill-rule:nonzero;stroke:none" transform="translate(206.35 324.036)" fill="#23272B" data-original="#23272b"></path><path d="m0 0-63.668.002a15.002 15.002 0 0 0-15 15l.005 154.023a15 15 0 0 0 15 15l63.668-.003c8.285 0 15-6.715 15-15L15 15C15 6.716 8.284 0 0 0" style="fill-opacity:1;fill-rule:nonzero;stroke:none" transform="translate(218.265 73.005)" fill="#088A7A" data-original="#088a7a"></path><path d="m0 0-44.515 31.626v67.511A84.183 84.183 0 0 1 2.61 125.352c16.058 17.703 23.932 41.539 21.601 65.395a11.74 11.74 0 0 1-.042.377L10.224 304.255A15 15 0 0 1-4.663 317.42h-54.851V-23.914H-7.63A13.174 13.174 0 0 1 0 0" style="fill-opacity:1;fill-rule:nonzero;stroke:none" transform="translate(423.105 23.914)" fill="#8ACCF5" data-original="#8accf5"></path><path d="M0 0c.016-.125.029-.251.042-.377 2.33-23.856-5.543-47.692-21.602-65.395-15.899-17.53-38.543-27.582-62.124-27.582-23.581 0-46.225 10.052-62.125 27.582-16.058 17.703-23.931 41.54-21.6 65.396.012.126.026.252.041.377z" style="fill-opacity:1;fill-rule:nonzero;stroke:none" transform="translate(447.274 215.038)" fill="#8F0933" data-original="#8f0933"></path><path d="M0 0a11.74 11.74 0 0 1-.042.377l-83.684.001v-93.356c23.581 0 46.225 10.053 62.125 27.582C-5.543-47.692 2.331-23.856 0 0" style="fill-opacity:1;fill-rule:nonzero;stroke:none" transform="translate(447.316 214.661)" fill="#700029" data-original="#700029"></path><path d="M0 0c0 15.011-2.221 27.224-17.242 27.224l-37.022.001c-15.022 0-17.243-12.212-17.243-27.223l-.004-114.584H-.003z" style="fill-opacity:1;fill-rule:nonzero;stroke:none" transform="translate(189.536 484.775)" fill="#EDC472" data-original="#edc472"></path><path d="m0 0-18.513.001v-141.807h35.752l.003 114.582C17.242-12.213 15.021 0 0 0" style="fill-opacity:1;fill-rule:nonzero;stroke:none" transform="translate(172.293 511.999)" fill="#CC9F56" data-original="#cc9f56"></path><path d="M189.536 441.057h-71.508v30h71.508z" style="fill-opacity:1;fill-rule:nonzero;stroke:none" fill="#06CCAB" data-original="#06ccab"></path><path d="M189.536 441.057h-35.754v30h35.754z" style="fill-opacity:1;fill-rule:nonzero;stroke:none" fill="#088A7A" data-original="#088a7a"></path></g></g></svg>